<?xml version="1.0" standalone="no"?>
<!DOCTYPE svg PUBLIC "-//W3C//DTD SVG 20010904//EN"
 "http://www.w3.org/TR/2001/REC-SVG-20010904/DTD/svg10.dtd">
<svg version="1.0" xmlns="http://www.w3.org/2000/svg"
 width="1080.000000pt" height="1080.000000pt" viewBox="0 0 1080.000000 1080.000000"
 preserveAspectRatio="xMidYMid meet">

<g transform="translate(0.000000,1080.000000) scale(0.100000,-0.100000)"
fill="#000000" stroke="none">
<path d="M5275 6814 c-373 -31 -708 -162 -988 -388 -528 -426 -770 -1087 -641
-1751 39 -197 152 -474 258 -628 25 -37 46 -69 46 -72 0 -3 -78 -5 -174 -5
-160 0 -175 -2 -200 -21 -31 -25 -33 -49 -5 -75 21 -19 67 -19 1818 -21 1435
-2 1801 0 1821 10 19 10 25 20 25 47 0 53 -23 60 -217 60 -93 0 -168 2 -168 5
0 3 20 35 44 70 99 145 188 345 237 536 41 163 52 258 52 449 0 298 -53 528
-183 790 -258 523 -746 883 -1320 974 -100 16 -320 27 -405 20z m365 -125
c196 -24 453 -117 635 -229 539 -331 849 -942 795 -1564 -20 -234 -62 -391
-159 -592 -56 -117 -99 -188 -172 -287 l-34 -46 -285 0 -285 0 35 27 c222 174
375 389 453 638 72 228 77 518 13 739 -115 400 -413 722 -794 860 -464 167
-973 60 -1331 -280 -194 -185 -338 -457 -382 -724 -15 -91 -15 -310 0 -401 56
-340 235 -632 516 -845 18 -13 -11 -14 -265 -14 l-285 0 -48 63 c-329 438
-415 1051 -221 1574 192 518 617 903 1156 1045 200 53 421 65 658 36z m-87
-500 c360 -54 646 -240 844 -548 74 -115 132 -275 158 -434 72 -446 -131 -906
-515 -1164 -117 -78 -69 -73 -641 -73 l-511 0 -57 30 c-195 105 -368 288 -476
505 -386 778 169 1684 1038 1694 49 1 121 -4 160 -10z"/>
<path d="M5302 5291 c-61 -21 -111 -65 -150 -131 -24 -39 -27 -56 -27 -130 0
-97 16 -141 73 -198 141 -141 376 -97 460 87 33 72 28 176 -11 243 -73 126
-209 176 -345 129z m187 -130 c38 -27 71 -89 71 -132 0 -114 -130 -195 -229
-144 -154 79 -91 316 80 302 27 -2 60 -13 78 -26z"/>
<path d="M2470 4539 c0 -22 64 -101 113 -141 29 -23 85 -56 125 -75 87 -40
248 -76 315 -70 26 2 46 3 44 1 -1 -2 -36 -21 -77 -42 l-74 -39 -41 23 c-22
13 -112 44 -200 69 -219 63 -412 80 -446 39 -18 -22 82 -119 166 -159 108 -52
184 -69 288 -62 48 3 87 4 87 2 0 -16 -229 -105 -271 -105 -9 0 -36 16 -61 35
-59 46 -246 120 -354 140 -56 11 -113 15 -163 11 -42 -3 -84 -5 -93 -6 -26 0
-22 -34 8 -70 55 -65 245 -131 424 -148 l85 -8 -80 -13 c-44 -7 -115 -15 -158
-18 l-77 -6 -68 65 c-78 76 -173 127 -288 158 -92 24 -123 25 -130 5 -10 -25
78 -136 146 -185 34 -25 56 -46 49 -48 -8 -1 -45 1 -84 5 -67 8 -69 9 -75 38
-12 57 -49 111 -121 179 -71 68 -148 112 -174 102 -11 -4 -11 -15 1 -66 24
-102 69 -168 154 -222 l45 -29 -40 7 c-55 9 -144 34 -181 52 -23 11 -33 23
-37 46 -11 65 -50 147 -93 195 -45 50 -175 151 -194 151 -29 0 10 -131 61
-207 17 -27 48 -65 68 -87 20 -21 31 -37 25 -35 -5 2 -44 19 -86 38 l-76 34
-17 56 c-34 110 -63 157 -141 230 -43 40 -85 71 -96 71 -19 0 -20 -4 -15 -52
4 -29 21 -83 39 -119 28 -55 30 -64 14 -55 -11 6 -30 23 -43 38 -38 43 -145
124 -187 142 -53 22 -65 9 -41 -44 28 -61 109 -131 186 -158 35 -13 74 -31 86
-41 21 -18 20 -18 -80 -24 -166 -10 -183 -24 -81 -67 53 -23 73 -25 208 -27
134 -1 154 -3 199 -25 l51 -23 -75 -6 c-88 -7 -192 -36 -186 -52 1 -7 21 -21
42 -31 57 -29 287 -36 370 -12 57 17 59 17 119 -5 l61 -23 -65 -13 c-77 -15
-214 -81 -218 -104 -5 -30 76 -53 163 -46 77 6 165 40 276 108 40 25 56 29
120 28 61 0 69 -2 49 -11 -170 -69 -310 -164 -310 -210 0 -15 9 -18 63 -18 35
0 88 8 118 18 83 27 213 115 255 173 l36 49 75 0 76 0 -62 -42 c-94 -63 -201
-200 -201 -258 0 -20 3 -22 32 -16 99 20 318 161 408 265 48 54 56 59 104 64
28 4 62 9 75 13 18 5 4 -13 -47 -61 -40 -37 -95 -98 -122 -134 -56 -75 -133
-218 -124 -232 20 -32 172 37 245 112 55 56 133 183 176 284 l28 67 75 24 c41
13 76 24 78 24 1 0 -18 -30 -43 -67 -60 -91 -101 -207 -116 -330 -12 -105 -8
-153 15 -153 7 0 63 48 124 108 91 89 115 118 140 173 42 95 91 257 98 328 l7
61 94 50 c51 27 96 50 99 50 3 0 -19 -28 -50 -61 -88 -98 -150 -271 -157 -439
-4 -80 -3 -85 17 -88 15 -2 39 17 85 65 64 68 118 158 158 263 26 65 61 235
61 291 0 37 2 40 59 69 l59 30 29 -45 c31 -50 49 -61 69 -44 21 17 17 38 -13
82 -25 35 -26 40 -10 48 65 37 95 99 57 119 -19 10 -27 7 -62 -20 -41 -34 -57
-30 -58 11 0 9 -9 27 -19 40 -19 23 -21 23 -37 7 -16 -16 -17 -23 -7 -60 7
-24 14 -50 17 -58 4 -10 -7 -22 -34 -38 l-40 -23 -66 51 c-36 28 -82 59 -102
69 -77 39 -249 91 -337 101 -118 13 -215 13 -215 -1z m256 -64 c6 -14 8 -14
18 0 10 13 23 11 110 -19 54 -19 102 -40 106 -46 4 -6 10 -11 14 -10 15 3 25
-6 18 -16 -5 -9 -24 -8 -72 2 -36 7 -72 14 -80 13 -27 0 33 -28 88 -40 45 -10
53 -16 48 -31 -4 -16 -2 -17 10 -7 11 9 14 8 14 -5 0 -10 4 -15 9 -11 5 3 12
1 16 -5 21 -35 -289 36 -328 75 -7 7 -23 15 -34 19 -24 8 -28 46 -5 46 8 0 12
6 9 14 -3 8 1 17 10 20 11 4 14 2 9 -9 -3 -8 -1 -15 4 -15 9 0 14 14 11 33 -2
14 20 7 25 -8z m704 -43 c0 -14 -31 -52 -42 -52 -6 0 -4 8 5 18 10 10 17 24
17 30 0 7 5 12 10 12 6 0 10 -3 10 -8z m-376 -71 c4 -5 -3 -7 -14 -4 -23 6
-26 13 -6 13 8 0 17 -4 20 -9z m-2218 -113 c33 -65 30 -69 -10 -16 -33 42 -63
65 -73 54 -3 -3 4 -11 16 -18 12 -7 21 -18 21 -25 0 -6 5 -13 12 -15 6 -2 8
-10 4 -17 -15 -23 -58 29 -87 105 -8 24 -8 25 6 14 13 -11 15 -9 15 11 0 22 2
21 36 -12 20 -18 47 -55 60 -81z m-259 56 c19 -14 32 -28 29 -31 -3 -3 -13 0
-23 8 -15 13 -16 12 -9 -6 6 -18 5 -18 -17 3 -21 20 -33 52 -19 52 3 0 20 -12
39 -26z m2025 -54 c40 -12 80 -24 88 -27 8 -4 21 -5 28 -4 14 2 15 -8 3 -28
-9 -14 -52 -8 -191 26 -17 4 -22 2 -15 -5 6 -5 51 -22 100 -37 50 -15 94 -31
98 -35 14 -12 -112 -20 -158 -10 -64 14 -173 61 -179 76 -3 8 -2 13 2 13 19
-3 22 3 12 24 -11 21 -11 22 5 2 9 -11 28 -21 43 -22 15 -1 22 1 16 5 -6 4
-15 18 -19 31 -7 24 -7 24 43 18 27 -3 83 -15 124 -27z m-177 1 c3 -5 1 -12
-5 -16 -5 -3 -10 1 -10 9 0 18 6 21 15 7z m-61 -10 c3 -5 -1 -11 -9 -14 -9 -4
-12 -1 -8 9 6 16 10 17 17 5z m-1275 -51 c10 0 64 -80 58 -86 -2 -2 -12 5 -22
16 -22 25 -44 27 -23 3 23 -27 33 -47 20 -39 -7 4 -12 2 -12 -3 0 -24 -21 -8
-64 50 -25 34 -46 68 -46 77 0 11 4 10 19 -6 10 -12 25 -22 32 -22 9 0 10 3 3
8 -6 4 -11 15 -11 25 0 16 2 15 19 -3 10 -11 23 -20 27 -20z m353 -104 c31
-30 66 -73 77 -95 24 -47 26 -58 7 -42 -7 6 -22 9 -32 5 -15 -5 -16 -4 -4 5
15 11 11 21 -12 25 -7 1 -35 24 -62 51 -27 28 -41 39 -30 25 36 -47 44 -68 30
-73 -14 -6 -39 17 -69 63 -24 34 -22 49 6 42 20 -5 21 -4 8 11 -9 12 -10 17
-2 17 7 0 9 5 6 10 -3 6 0 10 7 10 7 0 39 -24 70 -54z m658 29 c80 -19 180
-55 180 -65 0 -10 -20 -8 -37 3 -7 5 -17 6 -22 3 -5 -3 -31 1 -57 9 -58 17
-67 18 -59 5 3 -5 30 -17 60 -26 30 -10 55 -21 55 -25 0 -4 9 -5 20 -2 11 3
20 0 20 -6 0 -5 7 -8 15 -5 8 4 15 1 15 -6 0 -6 5 -8 10 -5 6 3 10 2 10 -4 0
-22 -272 19 -319 48 -18 11 -5 31 20 31 27 0 16 16 -16 22 -13 3 -22 1 -19 -3
3 -5 1 -16 -4 -25 -6 -11 -11 -13 -16 -5 -4 6 -2 11 4 11 6 0 8 10 4 24 -9 38
34 44 136 21z m-1360 -34 l35 -9 -45 -1 c-25 0 -55 2 -67 5 -32 9 -16 27 16
19 14 -3 42 -10 61 -14z m2314 -19 c-8 -2 -11 -8 -8 -14 4 -7 2 -8 -4 -4 -7 4
-12 2 -12 -3 0 -6 6 -11 13 -12 10 0 10 -2 0 -6 -7 -2 -13 -13 -13 -23 0 -10
-9 -37 -20 -61 -11 -24 -20 -51 -20 -59 0 -15 29 32 82 133 17 31 35 57 42 56
8 0 8 -2 0 -5 -7 -3 -10 -14 -7 -25 10 -36 -55 -209 -96 -256 -10 -13 -27 -23
-38 -22 -15 0 -14 2 5 9 12 5 22 15 22 22 0 9 -3 9 -10 -2 -5 -8 -12 -11 -16
-7 -4 3 -1 13 6 22 11 13 8 14 -21 9 -41 -8 -50 -14 -21 -14 12 0 22 -5 22
-11 0 -6 -9 -8 -21 -4 -15 5 -19 4 -15 -4 4 -6 3 -11 -3 -11 -16 0 -11 39 16
120 28 87 46 124 88 173 25 29 31 33 36 19 4 -10 1 -18 -7 -20z m-1904 -13 c0
-5 -4 -9 -8 -9 -5 0 -9 7 -9 15 0 8 4 12 9 9 4 -3 8 -9 8 -15z m649 -19 c48
-26 111 -73 111 -84 0 -2 -35 13 -77 34 -85 40 -133 55 -133 42 0 -5 20 -19
45 -32 25 -13 45 -29 45 -37 0 -7 3 -12 8 -12 20 3 32 -2 32 -16 0 -8 -5 -15
-11 -15 -5 0 -7 5 -3 11 4 7 0 9 -13 5 -14 -4 -39 7 -82 35 -69 46 -79 61 -59
83 21 24 75 19 137 -14z m932 -88 c-6 -2 -8 -8 -5 -13 3 -6 0 -17 -7 -25 -7
-9 -14 -23 -15 -32 -1 -10 -11 -44 -23 -76 -22 -61 -29 -112 -9 -66 30 70 62
136 69 140 4 3 11 18 14 33 4 15 14 27 22 27 8 0 11 -4 8 -10 -4 -6 1 -7 11
-3 14 5 16 3 11 -11 -4 -9 -14 -42 -23 -74 -35 -121 -119 -253 -162 -257 -9 0
-22 -4 -27 -7 -6 -3 -19 -2 -30 3 -20 8 -20 8 1 8 11 1 25 6 32 13 9 9 12 9
12 0 0 -7 5 -12 12 -12 9 0 9 3 0 12 -17 17 -15 28 6 21 14 -5 15 -4 4 8 -11
12 -15 11 -28 -5 -8 -11 -14 -14 -14 -7 0 9 -5 7 -16 -4 -20 -20 -29 -13 -16
12 5 10 8 34 6 53 -5 41 12 85 74 187 43 73 93 122 101 100 2 -6 -1 -13 -8
-15z m-1666 9 c15 -6 9 -9 -24 -9 -24 0 -46 -3 -49 -6 -5 -6 74 -10 110 -7 25
3 30 -14 5 -18 -38 -6 -175 -4 -202 3 -14 4 -25 11 -25 17 0 6 7 9 15 5 9 -3
15 0 15 9 0 12 14 15 68 14 37 0 76 -4 87 -8z m1750 -19 c-6 -7 -34 11 -29 19
3 5 11 3 19 -4 7 -6 12 -13 10 -15z m-1465 -112 c0 -5 -12 -12 -27 -16 -68
-14 -67 -24 2 -20 l70 4 -55 -23 c-59 -24 -134 -39 -125 -25 3 5 -5 16 -17 24
-30 21 -17 32 57 50 73 18 95 19 95 6z m1003 -17 c-4 -9 -26 -46 -50 -82 -44
-68 -58 -105 -22 -61 11 14 36 42 55 63 19 21 34 42 34 47 0 6 5 10 10 10 15
0 13 -8 -22 -69 -58 -103 -111 -163 -135 -154 -7 3 -13 1 -13 -4 0 -5 -11 -10
-25 -11 -32 -2 -33 14 0 22 16 4 22 11 19 21 -9 21 -25 19 -17 -2 5 -15 3 -16
-7 -6 -11 10 -7 22 23 65 35 50 144 178 152 178 3 0 1 -8 -2 -17z m-319 -5
c-3 -4 -10 -8 -17 -8 -15 0 -110 -100 -103 -108 4 -3 21 8 39 25 33 32 97 69
97 56 0 -4 5 -2 12 5 14 14 28 16 28 3 0 -11 -81 -71 -159 -119 -42 -26 -56
-30 -62 -20 -5 7 -9 17 -9 21 0 5 -4 6 -9 2 -5 -3 -12 -1 -15 3 -11 19 154
149 188 149 9 0 13 -4 10 -9z m-390 -32 c-3 -8 -26 -24 -51 -36 -25 -12 -43
-23 -40 -26 3 -3 35 9 73 26 37 17 72 29 78 27 12 -4 -60 -55 -121 -86 -52
-26 -75 -27 -90 -2 -11 17 -9 23 16 41 23 16 128 69 138 70 1 0 0 -6 -3 -14z
m-449 -16 c3 -5 1 -10 -4 -10 -6 0 -11 5 -11 10 0 6 2 10 4 10 3 0 8 -4 11
-10z"/>
<path d="M2712 4430 c0 -14 2 -19 5 -12 2 6 2 18 0 25 -3 6 -5 1 -5 -13z"/>
<path d="M2940 4330 c0 -5 5 -10 11 -10 5 0 7 5 4 10 -3 6 -8 10 -11 10 -2 0
-4 -4 -4 -10z"/>
<path d="M2948 3833 c6 -2 18 -2 25 0 6 3 1 5 -13 5 -14 0 -19 -2 -12 -5z"/>
<path d="M2220 3580 c0 -5 5 -10 11 -10 5 0 7 5 4 10 -3 6 -8 10 -11 10 -2 0
-4 -4 -4 -10z"/>
<path d="M8040 4489 c-186 -12 -395 -86 -505 -177 -27 -23 -53 -42 -57 -42 -6
0 -78 40 -78 43 0 1 7 24 15 51 18 60 12 88 -18 84 -16 -2 -26 -15 -35 -45 -8
-24 -18 -43 -22 -43 -5 0 -22 12 -39 26 -39 33 -75 29 -79 -8 -3 -28 11 -47
61 -83 l28 -20 -26 -35 c-26 -35 -33 -74 -15 -85 19 -12 46 5 71 45 13 22 27
40 30 40 4 0 31 -11 62 -25 l55 -26 1 -47 c1 -111 52 -287 119 -412 69 -129
181 -233 206 -192 3 5 1 53 -5 106 -17 167 -80 331 -158 412 -67 71 -63 73 36
18 54 -30 101 -54 105 -54 5 0 8 -22 8 -49 0 -57 59 -257 104 -351 29 -62 62
-99 203 -232 36 -35 72 -49 74 -30 0 4 2 16 4 27 6 28 -14 192 -30 245 -16 56
-61 159 -79 180 -7 8 -23 31 -35 52 l-22 36 63 -20 c90 -28 90 -29 118 -94 96
-225 221 -360 373 -402 54 -15 58 5 18 87 -48 96 -136 215 -213 285 l-67 62
78 -15 c67 -12 81 -18 95 -42 50 -85 328 -269 433 -286 l36 -6 -6 32 c-14 67
-119 195 -209 254 -27 17 -48 32 -48 34 0 1 35 0 78 -4 52 -4 80 -11 86 -21
43 -74 198 -179 302 -206 139 -36 197 -6 119 62 -45 40 -160 108 -230 137 -40
16 -51 24 -40 29 30 11 110 6 130 -8 11 -7 59 -34 106 -60 98 -52 203 -80 263
-70 58 9 106 31 106 47 0 22 -126 83 -212 103 l-77 18 62 21 c56 20 66 21 107
9 72 -22 148 -26 255 -16 97 10 179 36 172 55 -6 18 -141 56 -202 57 l-60 2
55 25 c51 23 66 25 189 24 111 -2 144 2 196 19 69 23 95 43 73 56 -7 5 -64 10
-126 12 -109 4 -113 5 -96 23 9 10 48 30 87 45 80 31 157 94 188 156 24 47 24
58 -1 58 -42 0 -125 -55 -208 -137 -72 -71 -82 -70 -45 5 35 70 49 161 26 169
-15 5 -106 -70 -155 -128 -25 -30 -50 -78 -72 -138 l-32 -92 -61 -28 c-33 -16
-70 -32 -82 -36 -23 -7 -23 -7 -3 13 90 90 180 283 143 306 -12 8 -161 -104
-204 -154 -37 -43 -74 -126 -84 -188 -4 -22 -14 -37 -32 -46 -35 -18 -171 -56
-201 -56 -20 0 -17 4 21 28 84 54 140 138 154 235 4 26 3 47 -3 51 -21 12
-130 -55 -191 -118 -58 -61 -111 -150 -111 -188 0 -16 -11 -18 -81 -18 l-82 0
64 48 c65 48 156 163 144 182 -20 32 -208 -14 -310 -75 -33 -20 -88 -63 -121
-97 l-62 -60 -133 17 c-74 9 -138 20 -142 24 -4 4 27 11 70 14 102 8 260 49
324 83 58 32 112 88 107 112 -3 14 -21 17 -118 20 -65 2 -141 -2 -175 -9 -92
-19 -262 -88 -330 -134 l-61 -42 -77 23 c-83 25 -197 73 -197 83 0 4 46 5 103
3 91 -4 111 -1 182 23 102 35 148 62 208 121 49 49 59 77 31 88 -25 10 -163 7
-234 -5 -94 -15 -337 -85 -392 -114 l-47 -24 -76 40 -76 39 68 0 c151 0 345
72 441 163 45 43 95 115 87 127 -3 6 -14 9 -23 9 -9 -1 -69 -5 -132 -10z m-50
-79 c12 6 18 16 14 23 -5 9 -4 9 5 1 17 -16 -14 -53 -39 -47 -20 5 -36 -12
-20 -22 5 -3 10 -1 10 5 0 13 31 9 43 -5 5 -6 7 -3 3 8 -3 9 -2 17 3 17 5 0
11 -9 14 -20 4 -15 -1 -22 -19 -26 -13 -3 -24 -10 -24 -14 0 -12 -93 -49 -178
-70 -86 -22 -162 -26 -162 -9 0 6 7 8 16 5 12 -5 15 -2 10 11 -6 15 -4 15 14
-2 20 -18 29 -8 10 11 -7 7 15 18 67 34 86 27 75 39 -19 20 -58 -11 -84 -7
-73 11 4 5 15 9 25 9 10 0 20 4 22 8 5 12 147 63 198 71 38 6 46 4 52 -12 6
-15 11 -16 28 -7z m-730 -34 c0 -7 7 -19 15 -26 9 -7 13 -15 10 -18 -7 -8 -45
29 -45 45 0 7 5 13 10 13 6 0 10 -6 10 -14z m2669 -78 c-10 -18 -9 -20 5 -15
22 9 21 -15 -3 -61 -24 -48 -56 -78 -66 -62 -4 7 7 26 26 46 18 19 29 34 23
34 -15 -1 -52 -32 -80 -70 -22 -30 -25 -31 -19 -10 10 35 32 68 79 117 47 49
51 52 35 21z m211 -27 c0 -6 -12 -23 -26 -38 -14 -15 -23 -22 -19 -15 7 14 4
15 -19 6 -9 -3 -13 -11 -9 -17 4 -6 1 -7 -7 -2 -10 6 -4 17 25 42 39 34 55 40
55 24z m-1906 -70 c-4 -17 -1 -32 6 -36 9 -5 10 -1 5 14 -9 29 9 26 25 -4 10
-19 16 -22 23 -13 6 10 8 9 5 -2 -5 -17 -50 -40 -137 -70 -68 -23 -215 -27
-208 -6 2 6 12 11 23 11 10 1 24 3 29 7 6 3 42 16 80 29 89 29 64 36 -43 11
-75 -18 -83 -18 -91 -4 -8 14 -12 14 -25 3 -9 -8 -19 -11 -22 -8 -11 11 42 31
166 63 161 42 171 43 164 5z m56 -5 c0 -3 -4 -8 -10 -11 -5 -3 -10 -1 -10 4 0
6 5 11 10 11 6 0 10 -2 10 -4z m34 -12 c9 -24 7 -28 -9 -14 -17 14 -20 30 -6
30 5 0 12 -7 15 -16z m1301 -29 c-2 -14 1 -25 6 -25 5 0 9 5 9 12 0 9 3 9 12
0 16 -16 -71 -128 -96 -124 -12 2 -15 -1 -10 -9 5 -8 3 -10 -6 -4 -10 6 -10
11 3 20 9 7 14 15 10 18 -3 4 2 16 12 27 10 11 14 20 8 20 -5 0 -18 -9 -28
-20 -29 -32 -29 -15 0 29 15 22 31 38 36 35 5 -3 9 0 9 6 0 6 4 9 9 6 5 -3 11
3 14 14 7 28 15 25 12 -5z m-945 -83 c0 -5 -9 -19 -20 -32 -25 -28 -25 -29 -1
-23 30 8 35 -26 5 -37 -47 -18 -222 -50 -265 -48 l-44 2 35 15 c19 8 41 14 48
12 6 -1 12 2 12 7 0 5 14 12 31 16 34 6 102 37 96 42 -2 2 -30 -3 -63 -12 -32
-9 -74 -17 -93 -18 -30 -3 -32 -1 -17 9 22 17 139 54 201 64 70 12 75 12 75 3z
m626 -6 c11 -11 11 -16 1 -20 -6 -4 -2 -4 10 -2 26 5 24 -20 -6 -63 -28 -39
-45 -51 -59 -42 -8 5 -5 18 14 46 l26 40 -30 -31 c-35 -37 -124 -106 -129
-100 -6 6 32 76 54 101 23 26 92 85 99 85 3 0 12 -6 20 -14z m-602 -31 c-7
-18 -8 -18 -14 1 -9 23 -1 39 11 27 6 -6 6 -18 3 -28z m1316 0 c0 -12 -13 -15
-67 -13 -42 1 -53 3 -30 5 20 2 37 7 37 11 0 4 14 9 30 10 21 2 30 -2 30 -13z
m-2379 -24 c15 -16 38 -49 50 -72 45 -90 80 -219 59 -219 -6 0 -11 10 -11 23
-1 16 -2 18 -6 5 -2 -10 -8 -18 -13 -18 -5 0 -7 7 -4 15 4 10 0 15 -12 16 -18
0 -18 1 0 8 17 6 17 8 4 14 -21 7 -32 -21 -17 -39 9 -11 8 -14 -1 -14 -7 0
-10 -7 -6 -17 6 -14 3 -14 -15 3 -55 49 -137 284 -99 284 5 0 7 -7 4 -15 -4
-8 -2 -15 4 -15 6 0 29 -34 52 -76 23 -42 44 -74 46 -71 3 3 -6 32 -20 66 -13
33 -22 61 -19 61 3 0 0 7 -7 15 -10 12 -10 15 0 15 8 0 6 7 -6 18 -19 17 -29
42 -18 42 4 0 19 -13 35 -29z m1364 -18 c16 -10 18 -15 9 -30 -19 -32 -117
-95 -141 -90 -12 2 -24 -1 -26 -6 -2 -6 -6 -3 -10 7 -4 9 -3 15 2 12 4 -3 17
3 28 13 11 11 40 29 64 42 65 34 22 38 -51 5 -32 -14 -63 -26 -69 -26 -6 0
-11 -4 -11 -9 0 -5 -9 -11 -19 -14 -12 -3 -18 0 -15 7 13 30 157 107 194 103
14 -1 34 -8 45 -14z m-962 -211 c25 -42 49 -88 53 -102 10 -31 12 -130 2 -130
-5 0 -8 6 -8 13 0 8 -4 7 -10 -3 -15 -23 -12 -30 12 -30 33 0 13 -13 -24 -15
-41 -3 -87 44 -131 130 -32 65 -79 204 -71 216 2 4 -2 10 -8 12 -10 4 -9 8 2
16 21 15 30 13 24 -4 -4 -9 0 -15 7 -15 13 0 90 -147 104 -198 4 -13 9 -21 12
-18 3 3 -5 38 -18 78 -13 40 -24 80 -25 88 -1 8 -9 29 -18 45 -53 100 34 25
97 -83z m1720 122 c-7 -3 -9 -12 -6 -20 4 -11 9 -12 19 -3 8 6 14 7 14 2 0
-20 -54 -33 -141 -33 -66 0 -88 3 -83 12 5 8 2 9 -10 5 -9 -4 -15 -3 -12 1 3
5 24 8 48 6 24 -1 52 2 63 6 15 7 9 9 -25 11 l-45 2 40 7 c45 8 156 11 138 4z
m-310 -154 c20 -6 37 -16 37 -22 0 -5 -7 -8 -15 -4 -8 3 -14 2 -13 -2 1 -4 -2
-15 -6 -24 -10 -23 -60 -17 -128 15 -29 15 -42 24 -28 22 84 -13 110 -14 110
-5 0 5 -18 13 -40 16 -22 4 -43 11 -47 17 -7 12 70 4 130 -13z m-1008 -134
c32 -42 51 -76 47 -85 -4 -12 -7 -11 -13 5 -4 10 -8 16 -8 12 -1 -3 -4 -15 -8
-25 -3 -10 -3 -15 2 -11 10 9 47 -10 40 -22 -6 -10 -45 -1 -45 12 0 5 -8 7
-18 4 -21 -7 -53 24 -104 104 -47 73 -61 101 -54 107 6 6 43 -33 88 -94 36
-50 51 -50 19 -1 -11 18 -26 45 -32 61 -6 15 -19 32 -30 37 -12 7 -16 16 -12
27 7 19 36 -10 128 -131z m278 95 c23 -16 57 -45 76 -65 l35 -36 -22 -20 c-21
-20 -23 -20 -54 -4 -18 9 -68 41 -111 72 -53 38 -74 58 -65 64 19 11 30 10 22
-3 -4 -7 -1 -10 7 -7 15 5 79 -31 117 -65 12 -11 22 -16 22 -10 0 6 -28 36
-62 68 -47 42 -55 53 -34 46 15 -6 46 -24 69 -40z m-158 29 c3 -5 1 -10 -4
-10 -6 0 -11 5 -11 10 0 6 2 10 4 10 3 0 8 -4 11 -10z m445 -20 c0 -5 -2 -10
-4 -10 -3 0 -8 5 -11 10 -3 6 -1 10 4 10 6 0 11 -4 11 -10z m95 -34 c33 -19
59 -39 58 -45 -2 -6 4 -11 14 -11 13 0 12 -4 -7 -20 -21 -18 -25 -18 -57 -5
-57 24 -154 86 -148 95 3 4 27 -2 54 -15 27 -14 62 -27 78 -30 25 -5 25 -4 -7
11 -19 9 -38 20 -41 26 -3 5 -10 9 -15 8 -5 -1 -10 3 -12 9 -6 19 22 11 83
-23z m385 14 c0 -5 -8 -10 -17 -10 -15 0 -16 2 -3 10 19 12 20 12 20 0z m-280
-90 c-8 -5 -19 -10 -25 -10 -5 0 -3 5 5 10 8 5 20 10 25 10 6 0 3 -5 -5 -10z
m-385 -40 c3 -5 1 -10 -4 -10 -6 0 -11 5 -11 10 0 6 2 10 4 10 3 0 8 -4 11
-10z"/>
<path d="M8037 3565 c-12 -11 -17 -12 -20 -2 -4 9 -6 9 -6 0 -1 -16 16 -26 24
-14 3 6 11 9 18 7 7 -1 9 -1 4 1 -4 3 -5 9 -1 14 8 14 -3 11 -19 -6z"/>
<path d="M8437 3533 c-4 -3 -7 -11 -7 -17 0 -6 5 -5 12 2 6 6 9 14 7 17 -3 3
-9 2 -12 -2z"/>
<path d="M5040 3458 c-83 -42 -113 -128 -72 -208 l17 -35 -101 -100 c-129
-128 -169 -201 -169 -312 0 -57 4 -77 21 -100 70 -93 251 -105 402 -27 36 19
99 62 139 95 l72 60 -14 -35 c-8 -20 -15 -49 -15 -65 0 -80 134 -81 248 -3 15
10 42 19 60 20 39 3 98 38 161 97 49 45 118 95 132 95 17 0 8 -24 -24 -64 -42
-53 -101 -136 -117 -165 -10 -19 -10 -25 1 -31 21 -13 58 7 143 79 102 85 182
144 223 165 33 17 73 21 73 9 -1 -5 -28 -39 -61 -78 -104 -120 -135 -192 -77
-178 13 4 57 34 98 67 180 148 284 216 303 197 5 -5 -21 -45 -63 -97 -92 -114
-102 -155 -45 -170 53 -13 142 38 294 170 36 31 69 56 74 56 5 0 -13 -28 -41
-62 -27 -35 -61 -84 -76 -109 -22 -39 -24 -48 -11 -53 25 -9 44 3 165 99 63
51 136 106 162 124 49 33 108 51 108 33 0 -5 -27 -41 -59 -80 -80 -96 -118
-161 -101 -172 21 -13 56 6 143 78 113 94 184 146 236 172 60 30 73 14 29 -36
-86 -97 -118 -146 -118 -180 0 -28 4 -35 26 -40 50 -13 119 21 233 114 l41 33
-15 -35 c-22 -52 -19 -83 10 -102 35 -23 135 -14 195 16 60 29 171 116 245
190 58 58 62 60 112 60 28 0 54 -4 57 -9 4 -5 -23 -32 -59 -61 -109 -87 -154
-159 -120 -194 35 -34 119 -6 215 72 87 71 82 69 65 29 -33 -79 -8 -117 77
-117 65 0 148 33 222 90 88 66 90 67 72 32 -20 -39 -20 -86 0 -106 20 -20 107
-21 160 -2 47 16 113 57 177 110 70 57 49 56 -25 -2 -109 -85 -209 -122 -237
-88 -27 32 -6 62 61 86 140 51 207 104 194 155 -6 22 -11 25 -55 25 -58 0
-176 -56 -256 -120 -123 -100 -171 -131 -221 -146 -65 -19 -94 -12 -94 22 0
51 71 153 143 205 52 38 72 38 63 2 -18 -72 -18 -83 -3 -83 29 0 60 36 60 69
0 40 -15 51 -71 51 -67 0 -203 -76 -307 -173 -34 -32 -123 -87 -139 -87 -36 0
-2 64 80 152 66 70 58 98 -27 98 -32 0 -39 3 -39 19 0 11 9 26 20 34 24 17 16
27 -20 27 -34 0 -74 -41 -66 -68 13 -41 -241 -249 -335 -273 -61 -16 -79 -8
-79 35 0 33 3 35 53 52 134 44 211 100 205 150 -3 27 -7 29 -49 32 -74 5 -181
-50 -309 -158 -109 -93 -170 -122 -170 -82 0 10 27 51 60 92 65 81 79 112 60
135 -35 42 -140 -1 -285 -119 -44 -35 -82 -63 -83 -61 -2 2 19 31 46 64 28 33
53 69 57 81 16 50 -55 66 -129 30 -23 -11 -81 -50 -130 -87 -137 -105 -135
-104 -106 -64 13 19 45 61 72 94 26 33 48 64 48 69 0 11 -43 10 -73 -1 -29
-11 -147 -100 -202 -151 -78 -73 -175 -122 -175 -87 0 7 25 44 55 82 76 97 88
121 75 145 -14 26 -70 27 -124 0 -23 -11 -81 -50 -130 -87 -132 -102 -136
-104 -103 -63 76 96 88 115 85 140 -3 22 -8 25 -45 28 -56 4 -116 -28 -243
-129 -57 -45 -99 -75 -94 -68 4 8 24 37 45 64 50 68 61 92 54 115 -7 22 -46
27 -88 11 -13 -5 -73 -51 -133 -101 -101 -84 -146 -111 -161 -96 -3 3 12 25
34 49 50 54 62 97 37 135 l-18 27 -7 -35 c-4 -20 -18 -42 -34 -53 -15 -11 -38
-43 -51 -71 -36 -76 -156 -158 -186 -128 -29 29 57 155 156 228 57 42 63 49
43 52 -60 8 -180 -59 -322 -180 -37 -31 -99 -74 -139 -94 -59 -31 -83 -38
-147 -42 -58 -3 -84 0 -112 13 -117 55 -74 255 96 440 l58 64 52 -24 c126 -58
314 -55 437 7 70 35 100 72 100 123 0 73 -37 101 -146 110 l-69 5 57 -13 c73
-17 98 -39 98 -87 0 -52 -35 -99 -100 -135 -52 -28 -61 -30 -170 -30 -85 0
-128 5 -167 18 -83 29 -83 37 -6 95 59 43 181 112 198 112 3 0 17 -24 30 -52
26 -58 33 -47 10 17 -15 42 -12 51 20 58 11 2 6 3 -11 2 -23 -2 -38 5 -63 31
-38 38 -124 74 -179 74 -21 0 -58 -10 -82 -22z m130 -8 c41 -11 130 -65 130
-79 0 -5 -24 -16 -52 -26 -29 -9 -95 -39 -146 -66 -51 -27 -96 -49 -101 -49
-14 0 -31 50 -31 91 0 54 25 95 75 119 45 22 73 25 125 10z m2574 -508 c7 -12
-21 -64 -47 -85 -27 -21 -83 -52 -116 -62 l-23 -7 18 32 c44 75 150 152 168
122z m1086 -14 c0 -31 -79 -102 -134 -121 -25 -9 -46 -13 -46 -9 0 12 70 96
103 124 40 34 77 37 77 6z"/>
<path d="M3294 3378 c-134 -123 -403 -446 -508 -611 -39 -61 -47 -80 -36 -87
22 -13 58 7 144 78 120 100 155 126 219 162 74 42 94 30 45 -26 -113 -127
-140 -183 -103 -214 39 -32 138 16 270 131 76 66 115 95 115 85 0 -2 -20 -28
-44 -56 -61 -72 -81 -115 -67 -146 8 -18 19 -24 43 -24 51 0 106 33 223 136
104 91 161 134 178 134 16 0 5 -24 -36 -78 -87 -113 -122 -173 -107 -182 23
-14 62 9 144 88 82 79 154 138 159 131 2 -2 8 -16 15 -32 6 -15 28 -35 47 -44
23 -11 34 -22 31 -32 -17 -56 -16 -68 4 -94 31 -40 111 -38 199 3 62 30 197
128 187 137 -2 3 -37 -20 -78 -50 -86 -64 -120 -83 -171 -92 -45 -9 -67 6 -67
44 0 43 20 58 90 70 152 26 247 150 120 159 -52 4 -166 -48 -224 -102 -21 -20
-47 -36 -57 -36 -22 0 -49 26 -49 47 0 16 56 73 71 73 15 0 10 18 -7 24 -25 9
-92 -27 -159 -86 -93 -81 -100 -86 -89 -68 5 9 22 34 37 57 38 55 34 87 -11
91 -44 4 -96 -27 -202 -123 -125 -114 -210 -163 -210 -122 0 17 57 99 119 172
28 32 51 63 51 67 0 4 -15 8 -34 8 -40 0 -119 -50 -221 -141 -175 -157 -257
-162 -135 -9 89 110 93 150 18 150 -52 0 -125 -40 -243 -135 -44 -35 -81 -62
-84 -60 -11 12 268 363 428 540 50 55 91 103 91 108 0 4 -11 7 -24 7 -15 0
-46 -19 -82 -52z m1016 -452 c0 -13 -9 -35 -20 -49 -23 -29 -97 -60 -131 -55
-22 3 -19 8 39 66 69 68 112 83 112 38z"/>
<path d="M3035 3401 c-55 -25 -127 -91 -186 -170 -49 -65 -51 -67 -182 -123
-130 -56 -132 -57 -152 -38 -88 83 -297 90 -445 15 -111 -56 -170 -136 -170
-227 0 -50 8 -73 40 -124 12 -19 8 -26 -33 -78 -48 -58 -82 -114 -74 -122 3
-3 14 10 25 28 12 18 43 55 71 82 l50 49 53 -23 c72 -32 234 -39 343 -15 207
46 350 175 478 431 l46 91 83 40 c100 48 178 119 178 163 0 44 -54 54 -125 21z
m105 -6 c9 -11 8 -21 -7 -45 -25 -43 -194 -152 -210 -136 -7 7 71 117 103 147
54 50 92 61 114 34z m-707 -297 c48 -21 81 -58 58 -66 -6 -2 -83 -39 -171 -83
-88 -43 -162 -79 -165 -79 -3 0 -14 15 -25 33 -23 38 -27 25 -5 -17 9 -16 14
-30 13 -31 -29 -25 -141 -105 -147 -105 -9 0 -26 39 -35 82 -10 43 13 126 47
170 85 110 290 156 430 96z m347 28 c0 -3 -33 -60 -72 -127 -157 -263 -301
-361 -510 -346 -84 6 -173 40 -173 67 0 7 30 36 67 63 l67 49 67 -17 c166 -41
332 50 322 178 l-3 41 105 48 c98 44 130 55 130 44z m-271 -174 c-22 -97 -188
-164 -294 -118 l-30 13 60 38 c33 21 105 60 160 86 110 52 120 50 104 -19z"/>
<path d="M3657 3182 c-17 -19 -23 -53 -11 -65 17 -17 102 52 89 72 -10 17 -60
13 -78 -7z"/>
</g>
</svg>
