<svg id="svg" version="1.1" xmlns="http://www.w3.org/2000/svg" xmlns:xlink="http://www.w3.org/1999/xlink" width="400" height="400" viewBox="0, 0, 400,400"><g id="svgg"><path id="path0" d="M144.400 138.800 C 143.479 139.721,143.435 141.223,143.413 172.548 L 143.400 190.096 144.326 190.448 C 144.835 190.642,146.680 190.800,148.426 190.800 C 153.329 190.800,153.116 191.315,153.162 179.379 C 153.188 172.611,153.345 169.308,153.656 168.932 C 154.021 168.493,155.991 168.391,163.510 168.423 C 174.631 168.472,173.895 168.803,174.072 163.668 C 174.249 158.517,174.887 158.800,163.112 158.800 L 153.577 158.800 153.689 153.300 L 153.800 147.800 163.742 147.756 C 171.755 147.720,173.752 147.604,174.036 147.156 C 174.801 145.947,174.469 138.865,173.626 138.414 C 171.973 137.529,145.319 137.881,144.400 138.800 M184.686 138.472 C 184.018 138.975,183.956 140.662,183.731 164.494 L 183.491 189.978 184.540 190.377 C 185.956 190.916,192.324 191.036,192.826 190.534 C 193.636 189.724,194.006 139.446,193.208 138.648 C 192.540 137.980,185.531 137.835,184.686 138.472 M204.641 138.521 C 203.991 138.996,203.918 140.071,203.806 150.821 C 203.698 161.192,203.544 188.133,203.585 189.510 C 203.618 190.641,211.841 191.519,212.859 190.501 C 213.099 190.261,213.242 186.139,213.224 179.953 C 213.193 169.474,213.524 160.796,213.954 160.805 C 214.089 160.808,215.717 163.373,217.571 166.505 C 219.425 169.637,221.887 173.730,223.042 175.600 C 224.197 177.470,226.628 181.487,228.445 184.526 C 230.262 187.565,232.064 190.220,232.448 190.426 C 233.350 190.908,240.282 190.915,240.579 190.434 C 240.820 190.043,241.230 163.863,241.233 148.632 C 241.235 137.640,241.517 138.260,236.425 138.062 C 230.816 137.843,231.200 136.689,231.200 153.776 C 231.200 162.169,231.047 168.047,230.825 168.185 C 230.411 168.441,228.596 165.958,227.231 163.269 C 226.747 162.316,225.526 160.336,224.516 158.869 C 223.506 157.401,222.068 154.940,221.320 153.400 C 220.572 151.860,218.860 148.890,217.516 146.800 C 216.172 144.710,214.466 142.010,213.725 140.800 C 212.980 139.585,211.979 138.484,211.488 138.340 C 209.854 137.861,205.381 137.979,204.641 138.521 M251.870 138.723 C 250.824 139.879,250.802 189.520,251.848 190.284 C 252.352 190.653,254.383 190.804,258.976 190.814 C 271.350 190.841,280.206 190.844,280.861 190.822 C 281.813 190.790,282.400 188.723,282.400 185.402 C 282.400 181.044,282.806 181.200,271.501 181.200 C 259.567 181.200,260.800 181.918,260.800 174.971 C 260.800 167.883,259.815 168.491,271.393 168.432 C 282.133 168.378,281.425 168.698,281.721 163.774 C 282.029 158.636,282.859 159.033,271.315 158.800 L 261.400 158.600 261.400 153.200 L 261.400 147.800 271.300 147.780 C 277.011 147.768,281.349 147.599,281.553 147.380 C 282.217 146.664,282.358 139.718,281.726 138.816 C 280.887 137.617,252.949 137.530,251.870 138.723 M264.533 203.984 C 256.181 205.973,253.068 218.729,259.709 223.749 C 261.527 225.123,265.349 226.985,268.363 227.965 C 275.152 230.172,276.881 233.199,273.363 236.717 C 270.496 239.584,264.000 237.426,264.000 233.606 C 264.000 231.052,257.704 229.347,255.973 231.432 C 255.283 232.264,255.965 236.450,257.211 239.023 C 261.419 247.715,277.132 248.090,281.374 239.600 C 285.749 230.843,282.757 225.312,271.491 221.332 C 265.818 219.328,264.037 218.029,264.013 215.880 C 263.970 212.093,268.491 209.948,272.400 211.901 C 273.711 212.556,274.047 213.042,275.756 216.766 C 276.318 217.989,282.185 218.106,283.094 216.912 C 284.543 215.010,281.458 207.906,278.270 205.803 C 275.192 203.771,268.915 202.940,264.533 203.984 M142.824 204.755 C 142.414 205.520,142.161 244.294,142.563 244.696 C 143.168 245.301,148.040 245.266,148.980 244.650 L 149.983 243.992 150.092 235.896 L 150.200 227.800 158.000 227.578 C 162.290 227.456,165.819 227.321,165.842 227.278 C 166.179 226.656,166.251 220.902,165.927 220.512 C 165.609 220.129,163.597 220.000,157.951 220.000 L 150.400 220.000 150.400 215.800 L 150.400 211.600 158.192 211.600 C 167.207 211.600,166.535 211.981,166.320 206.992 L 166.200 204.200 154.717 204.094 C 143.750 203.993,143.216 204.022,142.824 204.755 M174.063 204.525 C 173.606 205.075,173.321 244.255,173.771 244.704 C 174.320 245.253,180.228 245.289,180.670 244.746 C 181.425 243.819,181.677 205.887,180.935 204.828 C 180.231 203.823,174.843 203.585,174.063 204.525 M189.651 204.360 C 188.651 204.993,188.451 244.285,189.446 244.692 C 189.861 244.861,193.977 245.000,198.594 245.000 L 206.988 245.000 207.526 243.879 C 207.923 243.050,207.977 242.109,207.732 240.279 L 207.400 237.800 202.101 237.688 L 196.802 237.577 196.814 221.171 C 196.821 212.148,196.720 204.594,196.589 204.383 C 196.294 203.906,190.399 203.886,189.651 204.360 M214.057 204.531 C 213.593 205.090,213.284 244.217,213.740 244.673 C 213.867 244.801,215.199 244.975,216.700 245.060 C 221.168 245.313,220.931 245.930,221.184 233.376 C 221.408 222.272,221.578 221.343,222.959 223.703 C 223.376 224.416,224.343 226.080,225.108 227.400 C 229.961 235.779,229.526 235.200,230.978 235.200 C 232.512 235.200,233.081 234.628,234.755 231.400 C 235.791 229.401,238.438 224.831,239.965 222.403 C 240.684 221.260,240.768 222.303,240.826 233.131 C 240.875 242.112,240.988 244.131,241.471 244.614 C 242.164 245.307,246.180 245.416,247.835 244.787 L 248.921 244.374 248.631 224.692 C 248.306 202.662,248.533 204.000,245.125 204.000 C 241.995 204.000,241.504 204.320,239.748 207.505 C 238.931 208.987,237.889 210.740,237.432 211.400 C 236.976 212.060,235.425 214.760,233.987 217.400 C 232.485 220.156,231.122 222.200,230.786 222.200 C 230.434 222.200,228.923 219.716,227.000 215.977 C 223.159 208.506,220.998 204.934,219.996 204.398 C 218.884 203.803,214.582 203.899,214.057 204.531 " stroke="none" fill="#efefef" fill-rule="evenodd"></path><path id="path1" d="M284.233 87.100 C 283.965 87.369,282.927 87.552,281.200 87.634 C 280.870 87.650,271.638 87.594,260.685 87.509 C 244.638 87.385,240.685 87.457,240.336 87.878 C 239.799 88.525,236.727 88.567,236.096 87.936 C 235.519 87.359,220.478 87.251,219.594 87.817 C 219.267 88.026,216.480 88.239,213.400 88.290 C 210.320 88.341,207.620 88.391,207.400 88.402 C 205.395 88.504,199.201 88.135,198.966 87.900 C 198.561 87.494,181.300 87.515,181.048 87.922 C 180.939 88.099,172.783 88.179,162.925 88.100 C 153.066 88.021,142.390 87.972,139.200 87.991 C 136.010 88.010,124.775 88.002,114.234 87.975 C 103.693 87.947,94.108 88.044,92.934 88.191 L 90.800 88.458 90.800 187.457 C 90.800 293.626,90.687 287.601,92.671 287.599 C 93.304 287.599,93.382 287.887,93.263 289.791 C 93.170 291.291,93.301 292.145,93.679 292.492 C 94.806 293.529,96.033 294.000,97.607 294.000 C 98.555 294.000,99.287 293.793,99.374 293.500 C 100.033 291.291,99.983 291.314,101.127 292.704 C 102.636 294.536,104.065 294.334,104.457 292.233 C 104.691 290.977,105.410 291.095,106.024 292.492 C 107.298 295.386,109.983 294.203,110.027 290.729 C 110.051 288.860,110.106 288.722,110.475 289.600 C 111.486 292.002,111.785 292.369,113.412 293.206 C 114.357 293.692,115.674 294.117,116.338 294.151 C 117.002 294.184,117.677 294.344,117.839 294.506 C 118.259 294.925,124.309 294.871,124.572 294.446 C 124.869 293.964,142.000 293.945,142.000 294.426 C 142.000 294.983,147.071 294.878,148.101 294.300 C 150.232 293.103,150.799 291.973,150.800 288.924 C 150.800 287.342,150.980 285.936,151.200 285.800 C 151.420 285.664,151.600 285.068,151.600 284.476 C 151.602 281.378,157.671 279.699,160.026 282.145 C 161.047 283.206,161.700 289.200,160.795 289.200 C 160.552 289.200,160.462 289.024,160.595 288.808 C 161.111 287.973,159.994 286.800,158.686 286.803 C 156.866 286.808,155.464 290.477,156.769 291.820 C 156.972 292.029,157.197 292.740,157.269 293.400 C 157.460 295.149,160.127 295.236,160.327 293.500 C 160.396 292.895,160.621 292.400,160.827 292.400 C 161.032 292.400,161.200 292.119,161.200 291.776 C 161.200 291.433,161.385 291.267,161.610 291.406 C 161.836 291.546,161.988 292.052,161.948 292.530 C 161.786 294.469,161.969 294.800,163.200 294.800 C 164.089 294.800,164.400 294.613,164.400 294.080 C 164.400 293.684,164.607 293.153,164.860 292.900 C 165.156 292.604,165.305 290.867,165.280 288.020 C 165.257 285.467,165.400 283.600,165.620 283.600 C 165.829 283.600,166.000 284.418,166.000 285.417 C 166.000 287.317,167.122 289.142,167.969 288.619 C 168.260 288.439,168.400 289.213,168.400 291.005 C 168.400 294.007,168.886 294.800,170.725 294.800 C 172.588 294.800,174.236 291.087,172.774 290.184 C 172.270 289.873,173.455 288.400,174.210 288.400 C 174.845 288.400,175.176 286.260,174.909 283.887 C 174.782 282.767,174.857 282.000,175.091 282.000 C 175.330 282.000,175.519 284.319,175.568 287.853 C 175.653 294.056,175.871 294.800,177.600 294.800 C 179.761 294.800,180.234 292.488,179.472 285.657 C 179.226 283.454,179.262 282.754,179.615 282.872 C 179.922 282.974,180.140 284.471,180.240 287.178 C 180.436 292.440,180.948 294.000,182.480 294.000 C 183.257 294.000,183.619 293.785,183.661 293.300 C 183.694 292.915,183.742 292.388,183.766 292.128 C 183.790 291.869,183.943 291.524,184.105 291.362 C 184.267 291.199,184.421 289.702,184.447 288.033 C 184.473 286.365,184.647 284.460,184.834 283.800 C 185.106 282.838,185.142 282.997,185.020 284.600 C 184.733 288.350,185.554 289.921,187.248 288.863 C 188.265 288.228,188.596 288.282,188.010 288.988 C 187.321 289.818,187.279 293.330,187.949 294.138 C 188.368 294.644,189.188 294.800,191.425 294.800 C 193.035 294.800,194.464 294.980,194.600 295.200 C 194.736 295.420,195.366 295.600,196.000 295.600 C 196.634 295.600,197.264 295.420,197.400 295.200 C 197.536 294.980,198.205 294.800,198.886 294.800 C 200.680 294.800,202.800 293.068,202.800 291.603 C 202.800 290.967,202.980 290.336,203.200 290.200 C 203.420 290.064,203.600 289.333,203.600 288.576 C 203.600 286.997,204.031 286.792,204.605 288.100 C 204.870 288.705,205.409 289.040,206.245 289.121 C 207.630 289.256,207.978 288.231,207.813 284.500 C 207.771 283.565,207.875 282.800,208.042 282.800 C 208.210 282.800,208.432 284.555,208.536 286.700 C 208.848 293.142,209.097 293.955,211.110 295.100 C 212.900 296.118,217.580 295.233,217.611 293.871 C 217.616 293.612,217.928 293.895,218.303 294.500 C 219.096 295.778,220.332 295.925,221.863 294.922 C 222.835 294.285,222.927 294.285,223.393 294.922 C 224.136 295.939,263.691 295.966,264.707 294.950 C 265.254 294.403,265.341 293.426,265.260 288.747 L 265.164 283.194 266.282 282.757 C 269.234 281.604,274.800 282.949,274.800 284.816 C 274.800 285.379,274.956 286.011,275.146 286.220 C 275.337 286.429,275.361 287.500,275.200 288.600 C 275.039 289.700,274.883 290.362,274.853 290.071 C 274.670 288.261,270.800 287.597,270.800 289.376 C 270.800 289.913,270.620 290.464,270.400 290.600 C 270.172 290.741,270.000 290.395,270.000 289.795 C 270.000 287.900,268.897 287.261,267.071 288.100 C 265.997 288.593,265.984 288.645,266.091 292.000 L 266.200 295.400 267.662 295.522 C 268.791 295.616,269.261 295.447,269.727 294.783 L 270.330 293.922 270.779 294.761 C 271.501 296.109,274.189 295.942,274.971 294.500 C 275.299 293.895,275.575 293.671,275.584 294.002 C 275.603 294.703,277.669 295.722,278.676 295.529 C 279.629 295.345,279.878 293.995,279.733 289.800 C 279.648 287.358,279.733 286.393,279.998 286.800 C 280.212 287.130,280.391 287.728,280.394 288.129 C 280.401 288.981,281.314 290.000,282.071 290.000 C 282.456 290.000,282.563 290.533,282.464 291.959 C 282.281 294.594,282.862 295.600,284.565 295.600 C 286.387 295.600,287.004 294.714,286.979 292.138 C 286.961 290.337,287.071 290.000,287.679 290.000 C 288.213 290.000,288.400 289.690,288.400 288.800 C 288.400 288.140,288.580 287.600,288.800 287.600 C 289.020 287.600,289.200 286.689,289.200 285.576 C 289.200 284.375,289.357 283.650,289.587 283.792 C 289.810 283.930,289.946 286.273,289.909 289.327 C 289.836 295.231,289.939 295.600,291.652 295.600 C 293.887 295.600,294.122 294.946,294.036 288.972 C 293.985 285.503,294.104 283.600,294.370 283.600 C 294.634 283.600,294.765 285.536,294.734 289.014 C 294.682 294.974,294.908 295.559,297.276 295.587 C 298.806 295.605,298.856 295.404,298.839 289.195 C 298.830 286.118,298.971 283.600,299.153 283.600 C 299.334 283.600,299.482 284.862,299.482 286.404 C 299.482 289.270,300.171 290.800,301.462 290.800 C 301.838 290.800,302.000 291.378,302.000 292.720 C 302.000 295.531,302.163 295.602,308.580 295.587 C 315.037 295.573,315.547 295.379,315.715 292.875 C 315.871 290.544,316.400 290.303,316.400 292.562 C 316.400 295.213,316.927 295.600,320.543 295.600 L 323.543 295.600 323.991 293.444 C 324.314 291.888,324.322 290.150,324.019 287.201 C 323.474 281.892,323.459 260.134,324.000 259.800 C 324.220 259.664,324.400 258.404,324.400 257.000 C 324.400 255.596,324.220 254.336,324.000 254.200 C 323.780 254.064,323.600 252.534,323.600 250.800 C 323.600 249.066,323.780 247.536,324.000 247.400 C 324.232 247.257,324.400 245.070,324.400 242.200 C 324.400 239.330,324.232 237.143,324.000 237.000 C 323.780 236.864,323.600 235.593,323.600 234.176 C 323.600 232.725,323.775 231.600,324.000 231.600 C 324.542 231.600,324.518 225.478,323.974 224.934 C 323.694 224.654,323.628 222.946,323.782 219.954 C 324.356 208.746,324.431 203.471,324.021 203.061 C 323.479 202.519,323.460 194.134,324.000 193.800 C 324.527 193.475,324.522 186.123,323.995 185.797 C 323.508 185.496,323.568 178.467,324.060 178.163 C 324.536 177.869,324.486 174.900,324.000 174.600 C 323.780 174.464,323.600 173.204,323.600 171.800 C 323.600 170.396,323.780 169.136,324.000 169.000 C 324.220 168.864,324.400 168.324,324.400 167.800 C 324.400 167.276,324.220 166.736,324.000 166.600 C 323.780 166.464,323.600 165.924,323.600 165.400 C 323.600 164.876,323.780 164.336,324.000 164.200 C 324.512 163.883,324.526 159.325,324.015 159.009 C 323.495 158.688,323.609 153.578,324.156 152.700 C 324.480 152.180,324.456 151.782,324.063 151.153 C 323.684 150.545,323.657 150.183,323.967 149.873 C 324.511 149.329,324.532 147.729,324.000 147.400 C 323.467 147.071,323.486 143.474,324.024 142.936 C 324.438 142.522,324.348 137.386,323.781 129.077 C 323.612 126.611,323.684 125.381,324.019 124.977 C 324.387 124.533,324.389 124.269,324.026 123.831 C 323.662 123.393,323.669 123.078,324.058 122.456 C 324.464 121.805,324.461 121.462,324.043 120.680 C 323.618 119.886,323.618 119.561,324.043 118.880 C 324.468 118.199,324.468 117.874,324.043 117.080 C 323.616 116.282,323.619 115.959,324.058 115.255 C 324.498 114.552,324.500 114.252,324.073 113.569 C 323.672 112.927,323.662 112.608,324.026 112.169 C 324.390 111.730,324.381 111.459,323.986 110.983 C 323.598 110.516,323.586 110.254,323.937 109.903 C 324.504 109.336,324.552 106.541,324.000 106.200 C 323.780 106.064,323.600 105.524,323.600 105.000 C 323.600 104.476,323.780 103.936,324.000 103.800 C 324.547 103.462,324.507 100.667,323.947 100.107 C 323.684 99.844,323.623 99.349,323.803 98.927 C 324.248 97.881,324.422 94.800,324.036 94.800 C 323.623 94.800,323.710 88.772,324.133 88.100 C 324.641 87.292,324.051 86.800,322.573 86.800 L 321.194 86.800 321.262 88.617 C 321.300 89.616,321.482 90.527,321.665 90.640 C 322.138 90.932,322.083 92.400,321.600 92.400 C 321.370 92.400,321.179 93.800,321.150 95.700 C 321.080 100.339,320.472 96.939,320.430 91.671 C 320.409 89.127,320.230 87.773,319.865 87.408 C 319.202 86.745,305.406 86.543,305.006 87.190 C 304.740 87.620,300.179 87.513,299.733 87.066 C 299.315 86.649,297.806 86.754,297.325 87.235 C 297.012 87.548,296.815 87.548,296.622 87.235 C 296.250 86.634,292.281 86.686,291.630 87.300 C 291.206 87.700,291.063 87.700,290.917 87.300 C 290.691 86.685,289.514 86.646,288.925 87.235 C 288.612 87.548,288.415 87.548,288.222 87.235 C 287.919 86.746,284.697 86.637,284.233 87.100 M234.400 93.351 C 234.400 93.434,234.130 93.726,233.800 94.000 C 233.309 94.408,233.200 94.380,233.200 93.849 C 233.200 93.492,233.470 93.200,233.800 93.200 C 234.130 93.200,234.400 93.268,234.400 93.351 M142.505 100.862 C 142.997 101.116,143.658 101.443,143.973 101.589 C 144.289 101.734,144.666 102.111,144.811 102.427 C 144.957 102.742,145.284 103.403,145.538 103.895 C 146.105 104.992,146.149 107.600,145.600 107.600 C 145.380 107.600,145.200 108.600,145.200 109.821 C 145.200 113.663,144.192 114.607,140.127 114.571 C 136.403 114.539,135.600 114.124,135.600 112.231 C 135.600 111.532,135.442 110.789,135.249 110.580 C 133.679 108.881,136.409 101.939,138.831 101.471 C 139.804 101.283,140.771 100.965,140.980 100.765 C 141.456 100.308,141.430 100.307,142.505 100.862 M255.800 100.800 C 255.936 101.020,256.553 101.200,257.172 101.200 C 258.560 101.200,258.749 102.378,258.419 108.958 C 258.227 112.775,258.100 113.372,257.400 113.758 C 256.960 114.001,256.510 114.291,256.400 114.402 C 256.070 114.737,250.000 114.652,250.000 114.313 C 250.000 114.141,249.758 114.000,249.462 114.000 C 248.558 114.000,247.429 112.490,247.898 111.908 C 248.123 111.628,248.434 109.312,248.589 106.761 L 248.871 102.121 250.236 101.586 C 250.986 101.292,251.600 100.904,251.600 100.725 C 251.600 100.255,255.506 100.324,255.800 100.800 M286.227 101.491 C 287.028 102.568,286.829 113.193,286.000 113.628 C 284.476 114.426,283.610 114.594,281.000 114.597 C 277.886 114.600,277.200 114.223,277.200 112.509 C 277.200 111.877,276.977 111.137,276.703 110.863 C 276.308 110.468,276.313 110.301,276.729 110.044 C 277.101 109.814,277.264 108.517,277.293 105.560 C 277.343 100.373,277.349 100.367,282.150 100.606 C 284.943 100.745,285.812 100.934,286.227 101.491 M313.997 100.853 C 313.999 100.993,314.360 101.201,314.800 101.316 C 315.555 101.513,315.600 101.862,315.600 107.516 C 315.600 114.275,315.754 113.982,312.180 113.995 C 311.289 113.998,310.373 114.187,310.144 114.416 C 309.857 114.703,309.160 114.679,307.883 114.338 L 306.037 113.844 305.918 107.521 L 305.800 101.199 306.700 101.199 C 307.195 101.200,307.600 101.031,307.600 100.824 C 307.600 100.615,309.015 100.482,310.797 100.524 C 312.556 100.566,313.996 100.714,313.997 100.853 M116.700 101.853 C 117.700 102.834,117.363 111.992,116.276 113.349 C 114.853 115.128,109.511 115.402,107.889 113.780 C 106.801 112.692,106.447 111.065,107.198 110.601 C 107.416 110.466,107.553 109.241,107.500 107.878 C 107.387 104.910,108.146 102.982,109.700 102.293 C 110.305 102.024,110.800 101.662,110.800 101.489 C 110.800 100.982,116.149 101.312,116.700 101.853 M171.877 101.635 L 173.154 102.047 173.134 107.370 C 173.112 113.088,173.104 113.121,171.600 114.009 C 170.439 114.695,164.742 114.506,163.995 113.756 C 162.945 112.703,163.469 103.091,164.627 102.156 C 165.817 101.196,169.656 100.920,171.877 101.635 M200.899 101.959 L 201.997 102.379 201.899 107.290 C 201.844 109.990,201.710 112.290,201.600 112.400 C 201.490 112.510,201.201 112.960,200.958 113.400 C 200.570 114.101,200.034 114.214,196.617 114.315 C 191.510 114.466,191.671 114.655,191.801 108.649 C 191.929 102.792,192.108 102.078,193.527 101.766 C 194.117 101.636,194.780 101.476,195.000 101.410 C 195.792 101.173,199.824 101.548,200.899 101.959 M229.500 101.724 C 231.218 102.836,229.776 112.662,227.658 114.274 C 225.389 116.000,218.652 114.010,219.916 111.986 C 220.539 110.988,220.537 109.008,219.910 108.005 C 219.523 107.385,219.523 107.117,219.910 106.730 C 220.180 106.460,220.400 105.368,220.400 104.303 C 220.400 103.238,220.610 102.141,220.867 101.866 C 221.396 101.300,228.660 101.180,229.500 101.724 M321.200 102.480 C 321.200 103.126,321.082 103.242,320.755 102.915 C 320.510 102.670,320.431 102.274,320.578 102.035 C 320.992 101.365,321.200 101.514,321.200 102.480 M321.098 108.900 C 320.960 109.690,320.903 109.715,320.627 109.099 C 320.455 108.714,320.456 107.904,320.629 107.299 C 321.008 105.977,321.385 107.261,321.098 108.900 M322.000 124.200 C 322.000 125.186,321.402 125.153,321.342 124.164 C 321.311 123.637,321.446 123.305,321.642 123.426 C 321.839 123.548,322.000 123.896,322.000 124.200 M174.340 137.900 C 175.261 138.679,175.352 139.248,175.262 143.656 C 175.159 148.742,175.617 148.546,164.064 148.437 L 154.400 148.345 154.400 153.173 L 154.400 158.000 163.756 158.000 C 175.591 158.000,175.028 157.713,174.862 163.654 C 174.696 169.569,175.489 169.164,163.844 169.293 L 154.200 169.400 154.000 179.736 C 153.757 192.279,154.093 191.600,148.138 191.600 C 141.896 191.600,142.323 194.832,142.703 150.482 L 142.800 139.164 143.782 138.182 L 144.764 137.200 159.138 137.200 C 172.245 137.200,173.584 137.262,174.340 137.900 M193.690 138.311 L 194.600 139.222 194.477 159.911 C 194.375 176.925,194.204 188.476,194.030 190.071 C 193.854 191.685,186.569 192.329,183.930 190.964 L 182.700 190.328 182.916 164.673 L 183.131 139.018 184.230 138.073 C 185.809 136.714,192.256 136.877,193.690 138.311 M212.838 138.027 C 213.477 138.482,214.000 139.081,214.000 139.358 C 214.000 139.636,215.316 141.918,216.925 144.431 C 218.533 146.944,220.976 151.054,222.353 153.565 C 223.731 156.075,225.274 158.685,225.783 159.365 C 226.292 160.044,227.113 161.410,227.607 162.400 C 228.100 163.390,228.886 164.740,229.352 165.400 L 230.200 166.600 230.400 152.677 L 230.600 138.753 231.600 137.965 C 233.077 136.800,239.971 136.991,241.210 138.231 C 242.637 139.660,242.355 189.588,240.912 191.031 C 240.013 191.930,232.754 191.827,231.669 190.900 C 231.219 190.515,229.283 187.590,227.367 184.400 C 225.452 181.210,221.796 175.115,219.242 170.855 L 214.600 163.110 214.339 165.055 C 214.195 166.125,214.074 172.161,214.069 178.470 C 214.058 192.773,214.502 191.708,208.628 191.534 C 202.017 191.338,202.726 194.652,202.871 164.629 L 202.995 139.000 203.879 138.100 C 205.144 136.813,211.065 136.765,212.838 138.027 M282.176 137.974 C 282.932 138.809,283.002 139.409,282.880 144.024 C 282.753 148.828,283.402 148.567,271.851 148.443 L 262.000 148.337 262.000 153.169 L 262.000 158.000 271.418 158.000 L 280.836 158.000 281.827 158.991 C 282.788 159.951,282.810 160.098,282.556 163.891 C 282.177 169.566,282.933 169.200,271.581 169.200 C 260.542 169.200,261.638 168.585,261.632 174.790 C 261.626 181.021,260.500 180.400,271.814 180.400 L 281.542 180.400 282.412 181.500 C 283.195 182.491,283.265 182.969,283.122 186.308 C 282.872 192.114,284.190 191.686,266.793 191.620 C 252.925 191.568,251.096 191.429,250.400 190.378 C 250.223 190.112,250.260 157.565,250.449 147.000 C 250.488 144.800,250.453 142.125,250.371 141.056 C 250.239 139.333,250.349 139.003,251.333 138.156 L 252.445 137.200 266.960 137.200 C 280.803 137.200,281.508 137.236,282.176 137.974 M276.864 204.112 C 280.712 206.001,283.105 209.289,284.021 213.942 C 284.745 217.626,283.748 218.600,279.251 218.600 C 275.621 218.600,275.100 218.301,274.406 215.821 C 273.117 211.218,265.942 210.509,264.980 214.889 C 264.417 217.454,265.503 218.247,273.955 221.439 C 282.025 224.487,285.056 228.984,283.604 235.757 C 282.003 243.222,278.033 246.154,269.692 246.031 C 261.053 245.904,257.232 243.299,255.358 236.260 C 253.980 231.084,254.669 230.000,259.340 230.000 C 263.212 230.000,264.179 230.496,264.590 232.690 C 265.554 237.831,273.799 239.251,274.046 234.319 C 274.203 231.178,273.554 230.616,267.200 228.400 C 261.845 226.533,257.666 223.603,256.092 220.613 C 254.314 217.237,255.836 209.569,258.936 206.286 C 262.377 202.641,271.593 201.523,276.864 204.112 M166.426 203.614 C 167.098 203.974,167.200 204.476,167.200 207.440 C 167.200 212.710,167.741 212.400,158.543 212.400 C 151.569 212.400,150.741 212.469,150.957 213.033 C 151.091 213.381,151.200 214.911,151.200 216.433 L 151.200 219.200 158.591 219.200 C 167.567 219.200,167.318 219.046,166.857 224.325 C 166.487 228.556,166.852 228.387,158.100 228.394 L 150.800 228.400 150.800 236.371 L 150.800 244.342 149.746 245.171 C 148.024 246.526,142.558 246.234,141.573 244.735 C 140.983 243.836,141.586 205.080,142.205 204.136 L 142.818 203.200 154.236 203.200 C 161.341 203.200,165.945 203.356,166.426 203.614 M181.256 203.965 L 182.200 204.730 182.072 224.664 C 181.923 247.862,182.303 246.000,177.712 246.000 C 172.406 246.000,172.414 246.013,172.407 236.800 C 172.393 217.670,172.889 204.711,173.666 203.934 C 174.740 202.860,179.917 202.881,181.256 203.965 M196.982 203.980 C 197.634 204.700,197.685 205.998,197.648 220.780 L 197.608 236.800 202.555 236.800 C 208.489 236.800,208.404 236.736,208.462 241.226 C 208.527 246.194,208.799 246.072,197.990 245.921 C 191.046 245.824,189.179 245.682,188.607 245.207 C 187.519 244.303,187.907 205.207,189.016 203.982 C 190.059 202.830,195.940 202.829,196.982 203.980 M220.637 203.771 C 221.645 204.477,225.591 211.151,228.399 216.900 C 230.870 221.960,230.673 221.869,232.311 218.700 C 233.964 215.501,234.667 214.264,236.231 211.800 C 236.930 210.700,238.250 208.498,239.164 206.907 C 241.138 203.473,241.563 203.200,244.929 203.200 C 249.490 203.200,249.114 201.425,249.436 224.443 L 249.714 244.286 248.857 245.143 C 248.127 245.873,247.536 246.000,244.876 246.000 C 240.744 246.000,240.208 245.605,240.174 242.532 C 240.159 241.249,240.114 236.609,240.074 232.220 C 239.996 223.810,239.954 223.684,238.267 226.800 C 231.484 239.330,230.522 239.330,223.866 226.800 C 222.065 223.410,222.002 223.603,221.971 232.614 C 221.939 241.792,221.635 245.080,220.767 245.629 C 219.243 246.593,213.544 245.894,212.706 244.640 C 211.790 243.268,212.695 204.905,213.666 203.934 C 214.600 203.000,219.377 202.889,220.637 203.771 M139.433 266.500 C 139.598 266.665,140.063 266.800,140.467 266.800 C 140.870 266.800,141.200 266.980,141.200 267.200 C 141.200 267.420,141.538 267.600,141.951 267.600 C 143.263 267.600,143.496 268.484,143.500 273.474 L 143.504 278.349 142.252 279.674 C 141.038 280.960,136.400 281.789,136.400 280.720 C 136.400 280.544,136.040 280.400,135.600 280.400 C 135.152 280.400,134.800 280.133,134.800 279.795 C 134.800 279.462,134.641 278.877,134.447 278.495 C 133.502 276.638,133.281 275.576,133.284 272.900 C 133.286 271.305,133.403 270.000,133.546 270.000 C 133.688 270.000,134.039 269.470,134.326 268.823 C 134.612 268.176,135.376 267.412,136.023 267.126 C 136.670 266.839,137.200 266.505,137.200 266.384 C 137.200 266.055,139.086 266.153,139.433 266.500 M113.670 267.674 C 115.396 269.474,115.600 270.223,115.600 274.746 C 115.600 280.175,115.594 280.181,110.647 280.251 C 106.259 280.314,106.031 280.120,106.013 276.324 C 106.006 274.842,105.806 273.527,105.565 273.378 C 105.252 273.185,105.252 272.988,105.565 272.675 C 106.107 272.133,106.137 270.132,105.608 269.805 C 105.140 269.516,105.833 268.151,107.000 267.062 C 108.202 265.942,112.376 266.324,113.670 267.674 M170.975 268.618 C 171.524 269.456,171.628 270.565,171.561 274.906 C 171.478 280.339,171.276 281.034,169.800 280.959 C 169.360 280.937,167.783 280.892,166.296 280.859 C 164.125 280.812,163.455 280.641,162.896 279.991 C 162.093 279.057,161.101 273.207,161.647 272.620 C 161.841 272.411,162.000 271.316,162.000 270.187 C 162.000 267.533,161.885 267.600,166.421 267.600 C 170.144 267.600,170.336 267.643,170.975 268.618 M198.869 268.262 C 199.271 268.626,199.600 269.166,199.600 269.462 C 199.600 269.758,199.796 270.000,200.036 270.000 C 200.489 270.000,200.317 276.745,199.790 279.627 L 199.530 281.053 195.865 281.142 C 190.408 281.273,190.042 280.870,190.082 274.776 C 190.114 269.952,190.377 269.085,192.097 268.130 C 193.472 267.366,197.976 267.454,198.869 268.262 M226.000 267.953 C 226.000 268.148,226.358 268.400,226.795 268.515 C 227.819 268.782,228.400 270.342,228.400 272.826 C 228.400 273.912,228.549 274.800,228.732 274.800 C 229.586 274.800,228.341 280.157,227.273 281.076 C 226.127 282.062,221.918 282.437,221.400 281.600 C 221.264 281.380,220.868 281.200,220.520 281.200 C 219.497 281.200,218.826 279.930,218.813 277.967 C 218.806 276.958,218.665 275.998,218.500 275.833 C 218.096 275.429,218.079 270.800,218.481 270.800 C 218.657 270.800,218.800 270.517,218.800 270.171 C 218.800 269.094,219.877 268.400,221.548 268.400 C 222.431 268.400,223.264 268.220,223.400 268.000 C 223.705 267.506,226.000 267.465,226.000 267.953 M253.928 268.456 C 257.938 270.596,259.049 280.065,255.512 281.953 C 253.854 282.838,250.638 283.109,250.200 282.400 C 250.064 282.180,249.681 282.000,249.348 282.000 C 247.855 282.000,246.047 273.181,247.261 271.820 C 247.447 271.611,247.600 271.013,247.600 270.491 C 247.600 269.271,248.297 268.632,249.800 268.473 C 250.460 268.403,251.171 268.178,251.380 267.973 C 251.912 267.451,252.117 267.490,253.928 268.456 M283.600 268.800 C 283.600 269.020,283.862 269.200,284.181 269.200 C 285.332 269.200,285.942 271.607,285.930 276.100 C 285.923 278.465,285.756 280.400,285.559 280.400 C 285.361 280.400,285.200 280.695,285.200 281.056 C 285.200 282.838,280.528 283.485,278.146 282.033 C 276.851 281.243,275.600 279.232,275.600 277.939 C 275.600 277.532,275.420 277.200,275.200 277.200 C 274.705 277.200,274.668 275.729,275.156 275.427 C 275.351 275.306,275.609 274.621,275.727 273.904 C 276.356 270.102,276.897 269.200,278.548 269.200 C 279.101 269.200,279.664 269.020,279.800 268.800 C 279.936 268.580,280.847 268.400,281.824 268.400 C 282.801 268.400,283.600 268.580,283.600 268.800 M313.300 269.361 C 313.701 269.367,314.000 269.676,314.000 270.086 C 314.000 270.479,314.135 270.800,314.300 270.800 C 314.778 270.801,314.577 280.484,314.075 281.700 C 313.824 282.305,313.360 282.800,313.043 282.800 C 312.726 282.800,312.375 283.025,312.264 283.300 C 312.107 283.687,311.983 283.691,311.719 283.319 C 311.520 283.039,310.129 282.789,308.388 282.719 C 305.459 282.602,305.397 282.578,305.273 281.500 C 305.204 280.895,305.010 280.400,304.842 280.400 C 304.674 280.400,304.551 278.294,304.569 275.721 C 304.611 269.460,305.418 268.578,310.600 269.136 C 311.700 269.254,312.915 269.355,313.300 269.361 M95.600 282.000 C 95.600 282.880,95.420 283.600,95.200 283.600 C 94.757 283.600,94.643 281.090,95.067 280.667 C 95.534 280.200,95.600 280.365,95.600 282.000 M100.793 282.970 C 100.976 283.778,100.960 284.501,100.758 284.626 C 100.561 284.748,100.400 285.767,100.400 286.890 C 100.400 290.002,99.957 288.883,99.743 285.232 C 99.498 281.049,100.078 279.800,100.793 282.970 M108.430 283.487 C 110.328 283.232,110.362 283.283,109.993 285.800 C 109.756 287.415,109.642 287.627,109.403 286.900 C 108.786 285.027,105.200 285.999,105.200 288.038 C 105.200 288.530,105.065 288.798,104.900 288.632 C 104.735 288.466,104.600 286.926,104.600 285.210 L 104.600 282.090 105.730 282.894 C 106.575 283.495,107.256 283.644,108.430 283.487 M213.843 284.805 C 213.881 286.437,213.525 287.177,212.693 287.194 C 212.524 287.197,212.434 286.207,212.493 284.993 C 212.632 282.124,213.775 281.966,213.843 284.805 M220.561 284.641 C 221.200 284.948,221.946 285.200,222.219 285.200 C 222.913 285.200,223.095 285.930,222.892 287.898 C 222.721 289.547,222.000 289.935,222.000 288.376 C 222.000 287.753,221.719 287.600,220.571 287.600 C 218.858 287.600,218.000 288.351,218.000 289.851 C 218.000 290.461,217.861 290.789,217.691 290.580 C 217.521 290.371,217.445 288.707,217.522 286.883 C 217.677 283.208,217.641 283.235,220.561 284.641 M319.194 285.900 C 319.191 287.165,319.013 288.470,318.800 288.800 C 318.530 289.218,318.410 288.520,318.406 286.500 C 318.403 284.829,318.570 283.600,318.800 283.600 C 319.021 283.600,319.197 284.629,319.194 285.900 M170.684 285.599 C 170.638 286.259,170.465 286.799,170.300 286.799 C 169.941 286.800,169.931 286.496,170.252 285.300 C 170.589 284.044,170.783 284.178,170.684 285.599 M194.498 285.800 C 194.603 286.350,194.556 286.800,194.394 286.800 C 193.859 286.800,193.126 285.644,193.389 285.218 C 193.828 284.507,194.298 284.754,194.498 285.800 M304.707 286.000 C 305.107 286.640,305.107 286.960,304.707 287.600 C 303.983 288.760,303.800 288.598,303.800 286.800 C 303.800 285.002,303.983 284.840,304.707 286.000 M125.200 286.400 C 125.200 286.620,125.560 286.800,126.000 286.800 C 126.440 286.800,126.800 286.980,126.800 287.200 C 126.800 287.420,126.260 287.600,125.600 287.600 C 124.940 287.600,124.400 287.780,124.400 288.000 C 124.400 288.639,122.399 288.462,122.145 287.800 C 121.711 286.670,122.323 286.000,123.787 286.000 C 124.564 286.000,125.200 286.180,125.200 286.400 M314.252 286.900 C 314.119 287.395,314.008 287.946,314.005 288.124 C 314.002 288.302,313.820 288.336,313.600 288.200 C 312.925 287.783,313.125 286.000,313.847 286.000 C 314.322 286.000,314.429 286.238,314.252 286.900 M152.237 287.646 C 151.459 289.205,151.426 292.337,152.177 293.328 C 153.172 294.640,155.280 294.088,155.715 292.400 C 156.753 288.381,153.849 284.414,152.237 287.646 M309.520 286.880 C 310.256 287.616,310.091 288.400,309.200 288.400 C 308.613 288.400,308.400 288.133,308.400 287.400 C 308.400 286.308,308.774 286.134,309.520 286.880 M285.200 287.824 C 285.200 288.141,285.020 288.400,284.800 288.400 C 284.580 288.400,284.400 288.029,284.400 287.576 C 284.400 287.123,284.580 286.864,284.800 287.000 C 285.020 287.136,285.200 287.507,285.200 287.824 " stroke="none" fill="#040404" fill-rule="evenodd"></path><path id="path2" d="M174.893 140.400 C 174.893 141.170,174.975 141.485,175.076 141.100 C 175.176 140.715,175.176 140.085,175.076 139.700 C 174.975 139.315,174.893 139.630,174.893 140.400 M194.154 144.400 C 194.154 147.150,194.218 148.275,194.296 146.900 C 194.374 145.525,194.374 143.275,194.296 141.900 C 194.218 140.525,194.154 141.650,194.154 144.400 M241.761 146.000 C 241.761 149.410,241.822 150.805,241.897 149.100 C 241.972 147.395,241.972 144.605,241.897 142.900 C 241.822 141.195,241.761 142.590,241.761 146.000 M183.367 149.000 C 183.367 153.180,183.426 154.836,183.498 152.679 C 183.571 150.523,183.570 147.103,183.498 145.079 C 183.425 143.056,183.366 144.820,183.367 149.000 M230.940 144.800 C 230.940 146.670,231.009 147.435,231.093 146.500 C 231.177 145.565,231.177 144.035,231.093 143.100 C 231.009 142.165,230.940 142.930,230.940 144.800 M250.924 144.200 C 250.926 145.520,251.001 146.012,251.090 145.293 C 251.179 144.574,251.177 143.494,251.086 142.893 C 250.995 142.292,250.922 142.880,250.924 144.200 M203.357 150.400 C 203.357 153.370,203.420 154.585,203.497 153.100 C 203.574 151.615,203.574 149.185,203.497 147.700 C 203.420 146.215,203.357 147.430,203.357 150.400 M250.920 149.200 C 250.920 150.410,250.995 150.905,251.087 150.300 C 251.178 149.695,251.178 148.705,251.087 148.100 C 250.995 147.495,250.920 147.990,250.920 149.200 M194.093 152.000 C 194.093 152.770,194.175 153.085,194.276 152.700 C 194.376 152.315,194.376 151.685,194.276 151.300 C 194.175 150.915,194.093 151.230,194.093 152.000 M250.493 153.200 C 250.493 153.970,250.575 154.285,250.676 153.900 C 250.776 153.515,250.776 152.885,250.676 152.500 C 250.575 152.115,250.493 152.430,250.493 153.200 M241.709 154.800 C 241.709 155.790,241.787 156.195,241.882 155.700 C 241.978 155.205,241.978 154.395,241.882 153.900 C 241.787 153.405,241.709 153.810,241.709 154.800 M142.984 170.800 C 142.984 180.370,143.036 184.285,143.100 179.500 C 143.163 174.715,143.163 166.885,143.100 162.100 C 143.036 157.315,142.984 161.230,142.984 170.800 M250.509 156.800 C 250.509 157.790,250.587 158.195,250.682 157.700 C 250.778 157.205,250.778 156.395,250.682 155.900 C 250.587 155.405,250.509 155.810,250.509 156.800 M194.148 159.600 C 194.148 161.910,194.214 162.855,194.295 161.700 C 194.376 160.545,194.376 158.655,194.295 157.500 C 194.214 156.345,194.148 157.290,194.148 159.600 M174.501 161.400 C 174.505 162.280,174.587 162.593,174.683 162.095 C 174.779 161.598,174.775 160.878,174.675 160.495 C 174.575 160.113,174.496 160.520,174.501 161.400 M202.963 168.800 C 202.963 172.430,203.023 173.915,203.098 172.100 C 203.172 170.285,203.172 167.315,203.098 165.500 C 203.023 163.685,202.963 165.170,202.963 168.800 M213.765 172.200 C 213.766 176.160,213.826 177.726,213.898 175.680 C 213.971 173.634,213.971 170.394,213.898 168.480 C 213.824 166.566,213.765 168.240,213.765 172.200 M153.867 169.067 C 153.720 169.213,153.603 169.528,153.606 169.767 C 153.610 170.029,153.736 170.006,153.925 169.708 C 154.155 169.346,156.733 169.184,163.619 169.100 L 173.000 168.985 163.567 168.892 C 158.378 168.842,154.013 168.920,153.867 169.067 M266.323 169.099 C 269.031 169.168,273.351 169.168,275.923 169.099 C 278.495 169.029,276.280 168.972,271.000 168.973 C 265.720 168.973,263.615 169.030,266.323 169.099 M261.272 174.876 C 261.232 177.888,261.335 180.437,261.500 180.539 C 261.665 180.642,261.752 178.988,261.694 176.863 C 261.506 170.018,261.346 169.263,261.272 174.876 M250.560 181.000 C 250.561 184.300,250.622 185.597,250.698 183.882 C 250.773 182.167,250.772 179.467,250.697 177.882 C 250.621 176.297,250.559 177.700,250.560 181.000 M153.701 178.200 C 153.705 179.080,153.787 179.393,153.883 178.895 C 153.979 178.398,153.975 177.678,153.875 177.295 C 153.775 176.913,153.696 177.320,153.701 178.200 M202.893 178.400 C 202.893 179.170,202.975 179.485,203.076 179.100 C 203.176 178.715,203.176 178.085,203.076 177.700 C 202.975 177.315,202.893 177.630,202.893 178.400 M213.724 181.800 C 213.726 183.120,213.801 183.612,213.890 182.893 C 213.979 182.174,213.977 181.094,213.886 180.493 C 213.795 179.892,213.722 180.480,213.724 181.800 M193.740 186.800 C 193.740 188.670,193.809 189.435,193.893 188.500 C 193.977 187.565,193.977 186.035,193.893 185.100 C 193.809 184.165,193.740 184.930,193.740 186.800 M241.340 186.800 C 241.340 188.670,241.409 189.435,241.493 188.500 C 241.577 187.565,241.577 186.035,241.493 185.100 C 241.409 184.165,241.340 184.930,241.340 186.800 M153.693 186.800 C 153.693 187.570,153.775 187.885,153.876 187.500 C 153.976 187.115,153.976 186.485,153.876 186.100 C 153.775 185.715,153.693 186.030,153.693 186.800 M202.920 187.600 C 202.920 188.810,202.995 189.305,203.087 188.700 C 203.178 188.095,203.178 187.105,203.087 186.500 C 202.995 185.895,202.920 186.390,202.920 187.600 M279.300 191.476 C 279.685 191.576,280.315 191.576,280.700 191.476 C 281.085 191.375,280.770 191.293,280.000 191.293 C 279.230 191.293,278.915 191.375,279.300 191.476 M166.931 207.400 C 166.933 208.940,167.005 209.521,167.092 208.691 C 167.179 207.861,167.177 206.601,167.089 205.891 C 167.000 205.181,166.929 205.860,166.931 207.400 M188.501 206.200 C 188.505 207.080,188.587 207.393,188.683 206.895 C 188.779 206.398,188.775 205.678,188.675 205.295 C 188.575 204.913,188.496 205.320,188.501 206.200 M181.751 209.600 C 181.751 212.130,181.816 213.165,181.896 211.900 C 181.975 210.635,181.975 208.565,181.896 207.300 C 181.816 206.035,181.751 207.070,181.751 209.600 M197.354 210.000 C 197.354 212.750,197.418 213.875,197.496 212.500 C 197.574 211.125,197.574 208.875,197.496 207.500 C 197.418 206.125,197.354 207.250,197.354 210.000 M188.520 216.000 C 188.520 217.210,188.595 217.705,188.687 217.100 C 188.778 216.495,188.778 215.505,188.687 214.900 C 188.595 214.295,188.520 214.790,188.520 216.000 M141.742 218.600 C 141.741 220.580,141.808 221.440,141.892 220.512 C 141.976 219.584,141.977 217.964,141.895 216.912 C 141.812 215.860,141.743 216.620,141.742 218.600 M197.293 219.200 C 197.293 219.970,197.375 220.285,197.476 219.900 C 197.576 219.515,197.576 218.885,197.476 218.500 C 197.375 218.115,197.293 218.430,197.293 219.200 M212.893 220.400 C 212.893 221.170,212.975 221.485,213.076 221.100 C 213.176 220.715,213.176 220.085,213.076 219.700 C 212.975 219.315,212.893 219.630,212.893 220.400 M248.901 222.600 C 248.905 223.480,248.987 223.793,249.083 223.295 C 249.179 222.798,249.175 222.078,249.075 221.695 C 248.975 221.313,248.896 221.720,248.901 222.600 M248.966 235.200 C 248.966 239.270,249.025 240.935,249.098 238.900 C 249.171 236.865,249.171 233.535,249.098 231.500 C 249.025 229.465,248.966 231.130,248.966 235.200 M141.744 234.000 C 141.744 236.090,141.812 236.945,141.894 235.900 C 141.976 234.855,141.976 233.145,141.894 232.100 C 141.812 231.055,141.744 231.910,141.744 234.000 M172.957 236.000 C 172.957 238.970,173.020 240.185,173.097 238.700 C 173.174 237.215,173.174 234.785,173.097 233.300 C 173.020 231.815,172.957 233.030,172.957 236.000 M196.924 234.200 C 196.926 235.520,197.001 236.012,197.090 235.293 C 197.179 234.574,197.177 233.494,197.086 232.893 C 196.995 232.292,196.922 232.880,196.924 234.200 M240.528 242.000 C 240.528 243.430,240.601 244.015,240.689 243.300 C 240.778 242.585,240.778 241.415,240.689 240.700 C 240.601 239.985,240.528 240.570,240.528 242.000 M208.109 242.000 C 208.109 242.990,208.187 243.395,208.282 242.900 C 208.378 242.405,208.378 241.595,208.282 241.100 C 208.187 240.605,208.109 241.010,208.109 242.000 M221.301 243.000 C 221.305 243.880,221.387 244.193,221.483 243.695 C 221.579 243.198,221.575 242.478,221.475 242.095 C 221.375 241.713,221.296 242.120,221.301 243.000 M267.312 245.895 C 268.364 245.977,269.984 245.976,270.912 245.892 C 271.840 245.808,270.980 245.741,269.000 245.742 C 267.020 245.743,266.260 245.812,267.312 245.895 " stroke="none" fill="#535353" fill-rule="evenodd"></path><path id="path3" d="M144.000 138.400 C 143.248 139.152,143.205 139.673,143.283 147.100 L 143.367 155.000 143.583 147.067 C 143.861 136.899,141.976 138.000,159.103 138.000 C 175.614 138.000,174.374 137.620,174.483 142.714 L 174.566 146.600 174.699 142.849 C 174.901 137.143,176.255 137.600,159.138 137.600 C 145.333 137.600,144.770 137.630,144.000 138.400 M184.457 138.273 L 183.538 139.017 183.320 164.451 L 183.101 189.885 184.040 190.543 C 184.720 191.019,185.752 191.183,187.789 191.140 L 190.600 191.079 187.600 190.826 C 185.950 190.686,184.351 190.418,184.046 190.229 C 183.107 189.648,183.709 139.202,184.662 138.505 C 185.489 137.901,190.411 137.829,192.376 138.393 C 193.462 138.704,193.644 138.684,193.254 138.293 C 192.367 137.405,185.549 137.390,184.457 138.273 M204.180 138.422 C 203.476 139.200,202.628 189.123,203.331 188.396 C 203.435 188.288,203.609 177.142,203.716 163.627 C 203.943 135.054,203.403 137.834,208.679 138.093 C 210.482 138.182,211.866 138.107,211.755 137.927 C 211.275 137.151,204.957 137.564,204.180 138.422 M232.089 138.223 C 231.600 138.565,231.200 139.015,231.200 139.223 C 231.200 139.430,231.560 139.240,232.000 138.800 C 232.664 138.136,233.328 138.001,235.900 138.006 C 240.101 138.014,240.933 138.481,241.249 141.009 L 241.499 143.000 241.449 140.810 C 241.406 138.899,241.272 138.555,240.400 138.116 C 238.926 137.373,233.197 137.447,232.089 138.223 M251.700 138.270 C 250.990 138.765,250.814 139.246,250.864 140.549 C 250.927 142.170,250.931 142.174,251.095 140.800 C 251.442 137.897,250.865 138.000,266.839 138.000 C 283.804 138.000,282.413 137.515,282.098 143.316 C 281.879 147.354,281.659 147.873,280.071 148.116 L 279.000 148.280 280.038 148.340 C 281.865 148.446,282.330 147.418,282.472 142.962 C 282.567 139.973,282.457 138.751,282.051 138.262 C 281.241 137.286,253.100 137.293,251.700 138.270 M212.982 139.565 C 213.338 140.254,214.819 142.659,216.272 144.909 C 220.056 150.766,220.042 150.742,221.425 153.600 C 222.118 155.030,223.509 157.401,224.518 158.869 C 225.527 160.336,226.747 162.316,227.231 163.269 C 228.596 165.958,230.411 168.441,230.825 168.185 C 231.046 168.048,231.162 163.825,231.107 157.876 L 231.015 147.800 230.900 157.500 C 230.775 168.072,230.707 168.308,228.725 164.967 C 227.996 163.739,226.792 161.804,226.048 160.667 C 224.334 158.048,223.434 156.495,221.603 153.000 C 220.797 151.460,218.819 148.130,217.208 145.600 C 215.597 143.070,214.025 140.509,213.714 139.908 C 213.404 139.307,212.966 138.703,212.742 138.564 C 212.517 138.425,212.625 138.876,212.982 139.565 M193.610 161.409 C 193.605 173.687,193.689 183.644,193.797 183.537 C 194.079 183.255,194.136 139.603,193.855 139.322 C 193.726 139.192,193.616 149.132,193.610 161.409 M241.206 150.814 C 241.276 161.788,240.830 190.028,240.579 190.434 C 240.282 190.915,233.350 190.908,232.448 190.426 C 232.064 190.220,230.262 187.565,228.445 184.526 C 226.628 181.487,224.197 177.470,223.042 175.600 C 221.887 173.730,219.528 169.817,217.799 166.905 C 216.071 163.993,214.586 161.681,214.500 161.767 C 214.414 161.852,215.102 163.155,216.028 164.661 C 216.955 166.168,218.555 168.840,219.586 170.600 C 220.616 172.360,222.233 175.060,223.178 176.600 C 224.124 178.140,226.356 181.830,228.137 184.800 C 229.919 187.770,231.652 190.419,231.989 190.687 C 232.839 191.365,240.162 191.375,240.700 190.700 C 241.489 189.708,242.180 144.847,241.418 144.084 C 241.276 143.943,241.181 146.971,241.206 150.814 M174.000 147.100 C 174.000 147.338,173.505 147.714,172.900 147.935 C 172.295 148.156,172.081 148.351,172.424 148.368 C 173.254 148.410,174.678 147.345,174.299 146.966 C 174.135 146.801,174.000 146.862,174.000 147.100 M153.867 147.867 C 153.720 148.013,153.600 150.533,153.600 153.467 L 153.600 158.800 163.200 158.800 C 172.267 158.800,172.844 158.844,173.600 159.600 C 174.205 160.205,174.400 160.257,174.400 159.814 C 174.400 158.600,172.845 158.400,163.426 158.400 L 154.000 158.400 154.000 153.208 L 154.000 148.015 162.900 147.900 L 171.800 147.784 162.967 147.692 C 158.108 147.641,154.013 147.720,153.867 147.867 M261.375 148.122 C 261.264 148.409,261.225 150.884,261.287 153.622 L 261.400 158.600 271.315 158.800 C 282.860 159.033,282.031 158.637,281.715 163.774 C 281.416 168.635,281.861 168.360,274.059 168.501 L 267.400 168.621 274.286 168.710 C 282.360 168.815,281.762 169.195,282.160 163.713 C 282.563 158.148,283.083 158.400,271.200 158.400 L 261.600 158.400 261.600 153.208 L 261.600 148.016 270.300 147.900 L 279.000 147.784 270.287 147.692 C 263.423 147.619,261.532 147.711,261.375 148.122 M250.714 153.100 C 250.582 154.613,250.628 189.098,250.764 190.051 C 250.884 190.896,253.495 191.212,259.408 191.100 L 265.800 190.978 259.176 190.889 C 250.085 190.767,251.128 193.427,251.173 170.482 C 251.208 152.344,251.109 148.590,250.714 153.100 M213.632 163.100 C 213.667 165.679,213.843 165.534,214.118 162.700 C 214.219 161.655,214.144 160.800,213.951 160.800 C 213.758 160.800,213.614 161.835,213.632 163.100 M174.079 164.451 C 173.989 167.943,173.750 168.278,171.192 168.503 L 169.400 168.660 171.486 168.730 C 174.125 168.819,174.485 168.249,174.297 164.294 L 174.159 161.400 174.079 164.451 M213.276 172.476 C 213.234 176.148,213.335 179.237,213.500 179.339 C 213.665 179.442,213.753 177.428,213.696 174.863 C 213.509 166.543,213.353 165.655,213.276 172.476 M153.649 168.941 C 153.347 169.305,153.188 172.705,153.162 179.379 C 153.116 191.315,153.329 190.800,148.426 190.800 C 146.680 190.800,144.745 190.619,144.126 190.398 C 143.076 190.022,143.052 190.036,143.776 190.598 C 144.338 191.033,145.563 191.200,148.207 191.200 C 153.808 191.200,153.561 191.740,153.693 179.182 L 153.800 169.000 161.400 168.787 L 169.000 168.573 161.549 168.487 C 155.695 168.419,154.002 168.516,153.649 168.941 M263.107 168.690 C 263.826 168.779,264.906 168.777,265.507 168.686 C 266.108 168.595,265.520 168.522,264.200 168.524 C 262.880 168.526,262.388 168.601,263.107 168.690 M261.067 169.067 C 260.436 169.697,260.775 180.705,261.433 180.957 C 261.781 181.091,266.312 181.200,271.501 181.200 C 279.720 181.200,281.031 181.285,281.669 181.862 C 282.071 182.226,282.400 182.338,282.400 182.111 C 282.400 180.981,281.063 180.811,271.368 180.707 L 261.400 180.600 261.400 174.700 C 261.400 171.454,261.385 168.799,261.367 168.800 C 261.348 168.800,261.213 168.920,261.067 169.067 M143.355 181.000 C 143.356 183.860,143.420 184.978,143.497 183.483 C 143.574 181.989,143.574 179.649,143.496 178.283 C 143.418 176.918,143.355 178.140,143.355 181.000 M213.191 186.383 C 213.006 190.433,212.968 190.574,212.000 190.843 C 211.117 191.088,211.100 191.125,211.851 191.160 C 213.348 191.230,213.638 190.348,213.506 186.141 L 213.383 182.200 213.191 186.383 M282.534 185.600 C 282.534 187.250,282.605 187.925,282.691 187.100 C 282.778 186.275,282.778 184.925,282.691 184.100 C 282.605 183.275,282.534 183.950,282.534 185.600 M193.324 186.200 C 193.326 187.520,193.401 188.012,193.490 187.293 C 193.579 186.574,193.577 185.494,193.486 184.893 C 193.395 184.292,193.322 184.880,193.324 186.200 M281.881 189.671 C 281.726 190.260,281.285 190.824,280.900 190.924 C 280.309 191.079,280.301 191.114,280.851 191.154 C 281.711 191.215,282.504 190.221,282.315 189.319 C 282.200 188.773,282.096 188.857,281.881 189.671 M193.116 189.876 C 192.989 190.364,192.485 190.809,191.946 190.912 C 191.091 191.074,191.082 191.096,191.851 191.146 C 192.814 191.207,193.760 190.281,193.508 189.524 C 193.414 189.243,193.241 189.398,193.116 189.876 M203.200 189.659 C 203.200 190.652,205.038 191.204,208.119 191.138 L 211.000 191.076 207.655 190.821 C 205.024 190.620,204.192 190.404,203.755 189.806 C 203.321 189.212,203.200 189.180,203.200 189.659 M266.457 190.990 C 266.720 191.253,279.219 191.314,279.480 191.053 C 279.591 190.942,276.662 190.838,272.970 190.821 C 269.278 190.805,266.348 190.881,266.457 190.990 M264.715 203.528 C 264.338 203.678,266.446 203.800,269.400 203.800 C 272.354 203.800,274.462 203.678,274.085 203.528 C 273.708 203.379,271.600 203.256,269.400 203.256 C 267.200 203.256,265.092 203.379,264.715 203.528 M142.800 203.991 C 142.116 204.423,141.692 217.563,141.801 234.955 C 141.872 246.108,141.668 245.600,146.076 245.600 C 150.433 245.600,150.400 245.672,150.400 236.000 L 150.400 228.000 157.951 228.000 C 166.633 228.000,166.526 228.042,166.296 224.732 L 166.148 222.600 166.074 224.900 C 165.984 227.706,167.154 227.318,158.000 227.578 L 150.200 227.800 150.092 235.896 L 149.983 243.992 148.980 244.650 C 148.040 245.266,143.168 245.301,142.563 244.696 C 142.161 244.294,142.414 205.520,142.824 204.755 C 143.216 204.022,143.750 203.993,154.717 204.094 L 166.200 204.200 166.320 206.992 C 166.535 211.981,167.207 211.600,158.192 211.600 C 153.907 211.600,150.400 211.735,150.400 211.900 C 150.399 212.585,165.771 212.017,166.300 211.313 C 166.955 210.441,166.971 204.731,166.320 204.080 C 165.725 203.485,143.733 203.402,142.800 203.991 M175.891 203.889 C 176.601 203.977,177.861 203.979,178.691 203.892 C 179.521 203.805,178.940 203.733,177.400 203.731 C 175.860 203.729,175.181 203.800,175.891 203.889 M189.421 204.135 C 189.019 204.429,188.790 204.924,188.913 205.235 C 189.079 205.655,189.145 205.622,189.168 205.108 C 189.206 204.292,190.082 204.049,193.600 203.879 L 196.200 203.754 193.176 203.677 C 191.175 203.626,189.906 203.781,189.421 204.135 M213.894 204.163 C 213.313 204.744,212.800 220.260,212.800 237.243 C 212.800 245.722,212.732 245.600,217.440 245.600 C 221.574 245.600,221.374 246.178,221.543 233.739 C 221.622 227.942,221.803 223.200,221.947 223.200 C 222.241 223.200,222.836 224.105,224.296 226.768 C 226.017 229.910,226.884 231.249,227.076 231.058 C 227.177 230.956,226.823 230.182,226.290 229.337 C 225.756 228.492,224.618 226.588,223.760 225.108 C 221.488 221.186,221.426 221.387,221.184 233.376 C 220.931 245.930,221.168 245.313,216.700 245.060 C 215.199 244.975,213.867 244.801,213.740 244.673 C 213.284 244.217,213.593 205.090,214.057 204.531 C 214.582 203.899,218.884 203.803,219.996 204.398 C 220.405 204.617,221.403 205.887,222.213 207.221 C 223.023 208.555,223.766 209.567,223.864 209.469 C 224.171 209.163,220.788 204.214,220.077 203.928 C 218.785 203.409,214.485 203.573,213.894 204.163 M241.920 203.872 C 241.546 203.970,240.573 205.254,239.757 206.725 C 238.941 208.196,237.785 210.120,237.188 211.000 C 236.591 211.880,235.379 213.950,234.495 215.600 C 230.462 223.126,230.837 222.728,229.811 220.568 C 229.438 219.780,229.035 219.231,228.918 219.349 C 228.558 219.709,230.209 222.200,230.808 222.200 C 231.118 222.200,232.548 220.040,233.987 217.400 C 235.425 214.760,236.976 212.060,237.432 211.400 C 237.889 210.740,238.931 208.987,239.748 207.505 C 241.504 204.320,241.995 204.000,245.125 204.000 C 248.437 204.000,248.366 203.801,248.500 213.431 L 248.617 221.800 248.709 213.114 C 248.795 204.886,248.759 204.406,248.026 204.014 C 247.270 203.609,243.271 203.516,241.920 203.872 M173.414 204.754 C 173.283 205.169,173.126 214.274,173.066 224.987 C 172.940 247.641,172.490 245.600,177.609 245.600 C 181.899 245.600,181.614 246.607,181.506 231.820 L 181.412 219.000 181.300 231.566 C 181.220 240.631,181.054 244.294,180.707 244.712 C 180.231 245.286,174.346 245.279,173.771 244.704 C 173.321 244.255,173.606 205.075,174.063 204.525 C 174.361 204.165,174.365 204.000,174.076 204.000 C 173.844 204.000,173.546 204.340,173.414 204.754 M180.881 204.782 C 181.433 205.666,181.822 205.555,181.462 204.617 C 181.332 204.278,181.038 204.000,180.809 204.000 C 180.546 204.000,180.572 204.287,180.881 204.782 M196.553 204.281 C 196.702 204.546,196.821 210.919,196.817 218.443 C 196.813 225.968,196.904 232.029,197.020 231.913 C 197.510 231.423,197.275 204.715,196.777 204.256 C 196.405 203.912,196.349 203.919,196.553 204.281 M261.139 205.152 C 258.645 206.734,255.934 210.968,256.029 213.133 C 256.045 213.500,256.407 212.817,256.834 211.615 C 257.947 208.477,259.471 206.491,261.781 205.166 C 262.891 204.529,263.610 204.006,263.378 204.004 C 263.146 204.002,262.139 204.519,261.139 205.152 M275.920 204.420 C 278.517 205.462,280.365 207.242,281.772 210.054 C 282.558 211.623,283.200 212.619,283.200 212.266 C 283.200 211.582,282.032 209.341,280.692 207.452 C 279.772 206.155,276.564 203.987,275.622 204.025 C 275.247 204.041,275.366 204.197,275.920 204.420 M188.951 210.800 C 188.951 213.330,189.016 214.365,189.096 213.100 C 189.175 211.835,189.175 209.765,189.096 208.500 C 189.016 207.235,188.951 208.270,188.951 210.800 M225.469 212.955 C 226.290 214.614,227.029 215.905,227.111 215.823 C 227.321 215.613,224.793 210.443,224.345 210.166 C 224.142 210.040,224.648 211.295,225.469 212.955 M266.305 211.826 C 264.347 212.889,263.341 216.137,264.513 217.615 C 265.667 219.071,274.042 222.891,274.680 222.253 C 274.775 222.159,273.895 221.769,272.726 221.387 C 265.004 218.864,262.777 216.390,265.411 213.260 C 268.100 210.064,273.604 211.530,274.788 215.757 C 276.039 220.225,284.838 219.205,283.677 214.726 L 283.230 213.000 283.409 214.632 C 283.684 217.139,283.143 217.546,279.400 217.646 C 276.367 217.728,276.177 217.682,275.756 216.766 C 274.047 213.042,273.711 212.556,272.400 211.901 C 270.703 211.053,267.796 211.017,266.305 211.826 M150.524 216.200 C 150.526 217.520,150.601 218.012,150.690 217.293 C 150.779 216.574,150.777 215.494,150.686 214.893 C 150.595 214.292,150.522 214.880,150.524 216.200 M181.720 216.000 C 181.720 217.210,181.795 217.705,181.887 217.100 C 181.978 216.495,181.978 215.505,181.887 214.900 C 181.795 214.295,181.720 214.790,181.720 216.000 M227.786 217.500 C 228.135 218.215,228.506 218.800,228.610 218.800 C 229.008 218.800,228.752 218.163,227.967 217.200 L 227.152 216.200 227.786 217.500 M188.492 231.077 L 188.400 244.355 189.289 244.977 C 190.023 245.491,191.598 245.600,198.315 245.600 C 206.865 245.600,208.004 245.398,207.994 243.886 C 207.988 243.030,207.971 243.034,207.483 244.000 L 206.977 245.000 199.278 245.109 C 195.043 245.168,190.998 245.067,190.289 244.883 L 189.000 244.550 188.792 231.175 L 188.584 217.800 188.492 231.077 M256.018 218.639 C 255.969 220.953,262.297 227.436,263.465 226.268 C 263.559 226.174,262.652 225.541,261.449 224.863 C 259.056 223.512,257.400 221.624,256.571 219.301 C 256.222 218.323,256.029 218.092,256.018 218.639 M150.432 219.300 C 150.403 219.943,151.013 220.000,157.920 220.000 C 163.236 220.000,165.581 220.141,165.920 220.480 C 166.241 220.801,166.400 220.815,166.400 220.523 C 166.400 219.731,165.211 219.600,158.001 219.600 C 152.668 219.600,150.816 219.474,150.665 219.100 C 150.544 218.801,150.450 218.882,150.432 219.300 M238.822 224.300 C 238.081 225.565,237.075 227.239,236.585 228.020 C 236.095 228.801,235.203 230.421,234.602 231.620 C 232.419 235.974,230.464 236.544,228.603 233.369 C 228.012 232.361,227.438 231.629,227.326 231.740 C 226.968 232.099,229.541 235.491,230.328 235.697 C 231.982 236.130,233.351 235.015,234.916 231.960 C 236.523 228.825,237.460 227.197,239.156 224.600 L 240.200 223.000 240.412 231.400 L 240.625 239.800 240.712 230.900 C 240.809 221.123,240.767 220.978,238.822 224.300 M277.278 223.615 C 278.723 224.360,280.076 225.472,280.978 226.653 C 281.760 227.677,282.400 228.334,282.400 228.114 C 282.400 227.250,279.121 224.051,277.413 223.248 C 274.743 221.993,274.646 222.256,277.278 223.615 M248.920 226.000 C 248.920 227.210,248.995 227.705,249.087 227.100 C 249.178 226.495,249.178 225.505,249.087 224.900 C 248.995 224.295,248.920 224.790,248.920 226.000 M270.178 228.997 C 273.505 230.364,274.588 231.540,274.503 233.690 C 274.455 234.889,274.546 235.215,274.811 234.795 C 276.220 232.567,271.891 227.958,268.436 228.009 C 268.086 228.015,268.870 228.459,270.178 228.997 M282.638 230.200 C 282.970 232.184,283.202 232.504,283.194 230.967 C 283.191 230.325,283.004 229.530,282.779 229.200 C 282.486 228.770,282.446 229.054,282.638 230.200 M255.680 230.880 C 254.657 231.903,255.440 236.585,257.189 239.907 C 258.621 242.625,261.902 244.972,264.868 245.399 C 266.086 245.574,266.060 245.543,264.566 245.040 C 259.420 243.305,256.845 240.216,255.888 234.632 C 255.289 231.132,255.597 230.800,259.449 230.800 C 261.867 230.800,262.545 230.945,263.200 231.600 C 263.640 232.040,264.000 232.248,264.000 232.062 C 264.000 230.560,256.995 229.565,255.680 230.880 M264.030 233.886 C 263.995 234.926,266.205 237.600,267.101 237.600 C 267.448 237.600,267.137 237.205,266.392 236.700 C 265.662 236.205,264.839 235.170,264.563 234.400 C 264.181 233.335,264.054 233.212,264.030 233.886 M282.629 236.229 C 282.481 236.815,282.451 237.384,282.561 237.494 C 282.671 237.604,282.881 237.215,283.029 236.629 C 283.176 236.042,283.206 235.473,283.096 235.363 C 282.986 235.253,282.776 235.642,282.629 236.229 M273.282 236.496 C 272.651 237.126,271.707 237.464,270.093 237.637 L 267.800 237.882 269.894 237.941 C 271.624 237.990,276.037 235.703,274.389 235.612 C 274.273 235.605,273.775 236.003,273.282 236.496 M196.832 236.888 C 196.803 237.501,197.382 237.589,202.100 237.688 L 207.400 237.800 207.643 239.400 L 207.886 241.000 207.943 239.343 C 208.015 237.240,207.905 237.200,202.001 237.200 C 198.588 237.200,197.210 237.060,197.065 236.700 C 196.943 236.397,196.851 236.471,196.832 236.888 M281.573 239.265 C 280.422 242.044,278.404 243.692,274.200 245.285 C 272.773 245.826,272.564 245.984,273.471 245.838 C 277.323 245.214,283.727 239.594,282.259 238.126 C 282.176 238.042,281.867 238.555,281.573 239.265 M248.854 243.310 C 248.764 245.151,242.989 246.132,241.429 244.571 C 241.083 244.226,240.800 244.100,240.800 244.291 C 240.800 245.225,241.951 245.600,244.818 245.600 C 248.230 245.600,249.425 244.909,249.087 243.133 C 248.928 242.299,248.903 242.318,248.854 243.310 " stroke="none" fill="#747474" fill-rule="evenodd"></path><path id="path4" d="M151.700 137.499 C 155.605 137.565,161.995 137.565,165.900 137.499 C 169.805 137.434,166.610 137.380,158.800 137.380 C 150.990 137.380,147.795 137.434,151.700 137.499 M186.912 137.495 C 187.964 137.577,189.584 137.576,190.512 137.492 C 191.440 137.408,190.580 137.341,188.600 137.342 C 186.620 137.343,185.860 137.412,186.912 137.495 M203.782 138.182 C 202.892 139.071,202.806 139.457,202.868 142.282 L 202.935 145.400 203.168 142.067 C 203.462 137.840,203.737 137.600,208.291 137.600 C 211.656 137.600,213.600 138.248,213.600 139.370 C 213.600 139.632,213.873 140.196,214.207 140.624 C 214.765 141.339,214.776 141.305,214.339 140.200 C 213.098 137.059,206.220 135.744,203.782 138.182 M232.261 137.500 C 232.158 137.665,233.272 137.750,234.737 137.690 C 239.377 137.497,239.921 137.330,236.124 137.264 C 234.102 137.229,232.363 137.335,232.261 137.500 M254.500 137.496 C 255.765 137.575,257.835 137.575,259.100 137.496 C 260.365 137.416,259.330 137.351,256.800 137.351 C 254.270 137.351,253.235 137.416,254.500 137.496 M263.091 137.489 C 263.801 137.577,265.061 137.579,265.891 137.492 C 266.721 137.405,266.140 137.333,264.600 137.331 C 263.060 137.329,262.381 137.400,263.091 137.489 M274.400 137.491 C 280.959 137.596,281.444 137.656,282.100 138.446 C 282.485 138.909,282.800 139.117,282.800 138.906 C 282.800 137.458,281.447 137.199,274.369 137.290 L 267.400 137.380 274.400 137.491 M240.848 138.200 C 241.204 138.640,241.595 139.270,241.716 139.600 C 241.903 140.109,241.942 140.104,241.968 139.562 C 241.986 139.211,241.595 138.581,241.100 138.162 C 240.208 137.406,240.206 137.407,240.848 138.200 M142.966 146.400 C 142.966 150.470,143.025 152.135,143.098 150.100 C 143.171 148.065,143.171 144.735,143.098 142.700 C 143.025 140.665,142.966 142.330,142.966 146.400 M230.564 146.200 C 230.563 149.940,230.623 151.524,230.697 149.720 C 230.771 147.915,230.772 144.855,230.698 142.920 C 230.625 140.984,230.564 142.460,230.564 146.200 M174.931 144.200 C 174.933 145.740,175.005 146.321,175.092 145.491 C 175.179 144.661,175.177 143.401,175.089 142.691 C 175.000 141.981,174.929 142.660,174.931 144.200 M282.400 144.226 C 282.400 145.671,282.210 147.246,281.978 147.726 C 281.570 148.570,281.577 148.574,282.178 147.824 C 282.759 147.098,283.132 141.600,282.600 141.600 C 282.490 141.600,282.400 142.782,282.400 144.226 M250.493 147.200 C 250.493 147.970,250.575 148.285,250.676 147.900 C 250.776 147.515,250.776 146.885,250.676 146.500 C 250.575 146.115,250.493 146.430,250.493 147.200 M158.721 148.299 C 160.988 148.370,164.588 148.370,166.721 148.298 C 168.855 148.226,167.000 148.168,162.600 148.168 C 158.200 148.168,156.455 148.227,158.721 148.299 M194.551 152.400 C 194.551 154.930,194.616 155.965,194.696 154.700 C 194.775 153.435,194.775 151.365,194.696 150.100 C 194.616 148.835,194.551 149.870,194.551 152.400 M261.774 148.524 C 261.663 148.813,261.624 151.108,261.686 153.624 L 261.800 158.200 271.300 158.211 L 280.800 158.222 271.400 158.104 L 262.000 157.986 262.000 153.201 L 262.000 148.417 270.100 148.300 L 278.200 148.182 270.087 148.091 C 263.699 148.019,261.932 148.111,261.774 148.524 M154.181 153.299 L 154.200 158.200 163.600 158.211 L 173.000 158.222 163.712 158.104 L 154.425 157.986 154.293 153.192 L 154.161 148.399 154.181 153.299 M230.546 157.400 C 230.547 159.600,230.614 160.449,230.695 159.287 C 230.776 158.124,230.776 156.324,230.693 155.287 C 230.611 154.249,230.545 155.200,230.546 157.400 M202.944 158.800 C 202.944 160.890,203.012 161.745,203.094 160.700 C 203.176 159.655,203.176 157.945,203.094 156.900 C 203.012 155.855,202.944 156.710,202.944 158.800 M182.951 160.400 C 182.951 162.930,183.016 163.965,183.096 162.700 C 183.175 161.435,183.175 159.365,183.096 158.100 C 183.016 156.835,182.951 157.870,182.951 160.400 M241.774 168.200 C 241.775 173.920,241.831 176.204,241.899 173.276 C 241.968 170.348,241.967 165.668,241.899 162.876 C 241.830 160.084,241.774 162.480,241.774 168.200 M225.785 159.900 C 226.402 160.835,226.983 161.600,227.076 161.600 C 227.364 161.600,225.833 159.166,225.232 158.669 C 224.920 158.411,225.168 158.965,225.785 159.900 M282.501 161.400 C 282.505 162.280,282.587 162.593,282.683 162.095 C 282.779 161.598,282.775 160.878,282.675 160.495 C 282.575 160.113,282.496 160.520,282.501 161.400 M250.166 168.000 C 250.166 172.070,250.225 173.735,250.298 171.700 C 250.371 169.665,250.371 166.335,250.298 164.300 C 250.225 162.265,250.166 163.930,250.166 168.000 M142.563 168.000 C 142.563 171.630,142.623 173.115,142.698 171.300 C 142.772 169.485,142.772 166.515,142.698 164.700 C 142.623 162.885,142.563 164.370,142.563 168.000 M214.060 164.451 L 214.120 166.600 214.400 164.800 C 214.554 163.810,214.711 163.180,214.749 163.400 C 214.787 163.620,215.189 164.250,215.642 164.800 L 216.467 165.800 215.733 164.469 C 214.407 162.062,213.993 162.058,214.060 164.451 M174.477 165.277 C 174.412 167.541,174.263 168.051,173.511 168.577 C 173.022 168.920,172.814 169.200,173.049 169.200 C 174.225 169.200,174.840 167.688,174.697 165.146 L 174.554 162.600 174.477 165.277 M230.470 164.549 C 230.406 166.344,230.345 166.454,229.700 165.949 C 229.062 165.449,229.050 165.463,229.563 166.117 C 230.384 167.162,230.877 166.395,230.696 164.354 L 230.540 162.600 230.470 164.549 M194.174 173.800 C 194.175 179.520,194.231 181.804,194.299 178.876 C 194.368 175.948,194.367 171.268,194.299 168.476 C 194.230 165.684,194.174 168.080,194.174 173.800 M281.994 165.882 C 281.887 167.246,281.945 168.217,282.123 168.039 C 282.300 167.860,282.388 166.744,282.317 165.557 L 282.189 163.400 281.994 165.882 M182.948 169.600 C 182.948 171.910,183.014 172.855,183.095 171.700 C 183.176 170.545,183.176 168.655,183.095 167.500 C 183.014 166.345,182.948 167.290,182.948 169.600 M217.415 167.900 C 218.756 169.985,219.200 170.577,219.200 170.280 C 219.200 169.896,217.155 166.800,216.901 166.800 C 216.795 166.800,217.026 167.295,217.415 167.900 M153.742 173.400 C 153.741 175.380,153.808 176.240,153.892 175.312 C 153.976 174.384,153.977 172.764,153.895 171.712 C 153.812 170.660,153.743 171.420,153.742 173.400 M182.879 182.276 C 182.836 186.718,182.935 190.437,183.100 190.539 C 183.265 190.642,183.353 188.267,183.296 185.263 C 183.105 175.182,182.960 174.140,182.879 182.276 M222.430 176.200 C 222.924 177.080,223.500 177.980,223.710 178.200 C 224.309 178.828,222.939 176.294,222.196 175.400 C 221.830 174.960,221.935 175.320,222.430 176.200 M224.839 180.176 C 225.301 180.959,225.756 181.600,225.850 181.600 C 226.134 181.600,224.836 179.269,224.402 179.001 C 224.180 178.864,224.377 179.393,224.839 180.176 M241.728 181.600 C 241.728 183.030,241.801 183.615,241.889 182.900 C 241.978 182.185,241.978 181.015,241.889 180.300 C 241.801 179.585,241.728 180.170,241.728 181.600 M153.737 182.600 C 153.739 184.360,153.809 185.030,153.893 184.089 C 153.978 183.149,153.977 181.709,153.891 180.889 C 153.805 180.070,153.736 180.840,153.737 182.600 M202.937 182.600 C 202.939 184.360,203.009 185.030,203.093 184.089 C 203.178 183.149,203.177 181.709,203.091 180.889 C 203.005 180.070,202.936 180.840,202.937 182.600 M261.763 180.090 C 261.843 180.483,264.102 180.625,271.610 180.707 C 280.167 180.802,281.453 180.899,282.177 181.507 C 282.998 182.198,282.998 182.198,282.238 181.300 C 281.486 180.412,281.343 180.400,271.771 180.400 C 265.543 180.400,261.994 180.253,261.863 179.990 C 261.752 179.764,261.706 179.810,261.763 180.090 M282.940 185.600 C 282.940 187.470,283.009 188.235,283.093 187.300 C 283.177 186.365,283.177 184.835,283.093 183.900 C 283.009 182.965,282.940 183.730,282.940 185.600 M213.720 186.000 C 213.720 187.210,213.795 187.705,213.887 187.100 C 213.978 186.495,213.978 185.505,213.887 184.900 C 213.795 184.295,213.720 184.790,213.720 186.000 M250.070 188.271 C 249.939 191.404,250.716 191.673,259.400 191.503 L 265.800 191.378 258.989 191.289 C 251.074 191.186,250.537 191.000,250.293 188.293 L 250.140 186.600 250.070 188.271 M142.493 188.400 C 142.493 189.170,142.575 189.485,142.676 189.100 C 142.776 188.715,142.776 188.085,142.676 187.700 C 142.575 187.315,142.493 187.630,142.493 188.400 M146.313 191.495 C 147.476 191.576,149.276 191.576,150.313 191.493 C 151.351 191.411,150.400 191.345,148.200 191.346 C 146.000 191.347,145.151 191.414,146.313 191.495 M185.891 191.489 C 186.601 191.577,187.861 191.579,188.691 191.492 C 189.521 191.405,188.940 191.333,187.400 191.331 C 185.860 191.329,185.181 191.400,185.891 191.489 M205.891 191.489 C 206.601 191.577,207.861 191.579,208.691 191.492 C 209.521 191.405,208.940 191.333,207.400 191.331 C 205.860 191.329,205.181 191.400,205.891 191.489 M234.300 191.495 C 235.455 191.576,237.345 191.576,238.500 191.495 C 239.655 191.414,238.710 191.348,236.400 191.348 C 234.090 191.348,233.145 191.414,234.300 191.495 M267.100 191.482 C 267.595 191.578,268.405 191.578,268.900 191.482 C 269.395 191.387,268.990 191.309,268.000 191.309 C 267.010 191.309,266.605 191.387,267.100 191.482 M271.900 191.489 C 272.615 191.578,273.785 191.578,274.500 191.489 C 275.215 191.401,274.630 191.328,273.200 191.328 C 271.770 191.328,271.185 191.401,271.900 191.489 M266.900 203.096 C 268.165 203.175,270.235 203.175,271.500 203.096 C 272.765 203.016,271.730 202.951,269.200 202.951 C 266.670 202.951,265.635 203.016,266.900 203.096 M142.223 204.089 C 141.725 204.799,141.616 206.027,141.678 210.189 L 141.756 215.400 141.978 209.918 C 142.100 206.903,142.386 204.252,142.613 204.025 C 142.870 203.769,147.107 203.570,153.813 203.500 L 164.600 203.386 153.723 203.293 C 142.886 203.200,142.843 203.203,142.223 204.089 M173.776 203.830 C 173.349 204.176,173.270 204.311,173.600 204.130 C 173.930 203.948,175.640 203.695,177.400 203.568 L 180.600 203.335 177.576 203.268 C 175.343 203.218,174.350 203.364,173.776 203.830 M189.460 203.500 C 189.358 203.665,190.858 203.743,192.795 203.673 C 196.085 203.554,196.359 203.606,196.958 204.462 C 197.311 204.966,197.600 205.186,197.600 204.951 C 197.600 203.525,190.259 202.217,189.460 203.500 M217.339 203.566 C 220.205 203.780,220.564 203.904,221.474 205.000 C 222.137 205.797,222.324 205.905,222.032 205.321 C 221.216 203.683,220.023 203.195,217.011 203.266 L 214.200 203.332 217.339 203.566 M241.285 203.900 C 240.843 204.285,240.179 205.140,239.810 205.800 C 239.143 206.992,239.399 206.723,240.949 204.600 C 241.416 203.961,242.164 203.753,244.667 203.566 L 247.800 203.332 244.944 203.266 C 242.730 203.215,241.908 203.357,241.285 203.900 M248.292 204.031 C 248.635 204.472,248.819 207.179,248.900 213.031 L 249.017 221.400 249.109 212.949 C 249.191 205.311,249.133 204.445,248.500 203.949 C 247.882 203.464,247.858 203.474,248.292 204.031 M182.093 206.800 C 182.093 207.570,182.175 207.885,182.276 207.500 C 182.376 207.115,182.376 206.485,182.276 206.100 C 182.175 205.715,182.093 206.030,182.093 206.800 M172.963 212.800 C 172.963 216.430,173.023 217.915,173.098 216.100 C 173.172 214.285,173.172 211.315,173.098 209.500 C 173.023 207.685,172.963 209.170,172.963 212.800 M212.963 212.800 C 212.963 216.430,213.023 217.915,213.098 216.100 C 213.172 214.285,213.172 211.315,213.098 209.500 C 213.023 207.685,212.963 209.170,212.963 212.800 M188.540 210.800 C 188.540 212.670,188.609 213.435,188.693 212.500 C 188.777 211.565,188.777 210.035,188.693 209.100 C 188.609 208.165,188.540 208.930,188.540 210.800 M282.525 210.359 C 283.006 211.437,283.456 212.170,283.523 211.989 C 283.652 211.646,282.109 208.400,281.817 208.400 C 281.726 208.400,282.045 209.282,282.525 210.359 M166.667 210.874 C 166.520 211.461,166.085 212.024,165.700 212.124 C 165.054 212.293,165.053 212.311,165.686 212.354 C 166.430 212.404,167.350 211.049,167.094 210.281 C 167.007 210.020,166.815 210.287,166.667 210.874 M226.386 213.635 C 227.618 216.240,228.314 217.279,227.640 215.505 C 227.064 213.989,225.618 211.200,225.409 211.200 C 225.313 211.200,225.752 212.296,226.386 213.635 M154.100 212.298 C 156.025 212.371,159.175 212.371,161.100 212.298 C 163.025 212.225,161.450 212.165,157.600 212.165 C 153.750 212.165,152.175 212.225,154.100 212.298 M150.973 216.299 L 151.000 219.400 158.370 219.509 C 163.433 219.584,165.938 219.772,166.370 220.109 C 166.926 220.542,166.935 220.518,166.451 219.900 C 165.964 219.279,165.077 219.200,158.568 219.200 L 151.234 219.200 151.090 216.199 L 150.946 213.197 150.973 216.299 M182.134 216.000 C 182.134 217.650,182.205 218.325,182.291 217.500 C 182.378 216.675,182.378 215.325,182.291 214.500 C 182.205 213.675,182.134 214.350,182.134 216.000 M255.314 215.800 C 255.317 216.900,255.395 217.303,255.487 216.695 C 255.579 216.086,255.577 215.186,255.482 214.695 C 255.387 214.203,255.311 214.700,255.314 215.800 M197.714 216.200 C 197.717 217.300,197.795 217.703,197.887 217.095 C 197.979 216.486,197.977 215.586,197.882 215.095 C 197.787 214.603,197.711 215.100,197.714 216.200 M233.814 215.835 C 233.441 216.404,233.205 216.938,233.289 217.022 C 233.373 217.107,233.758 216.641,234.144 215.988 C 235.006 214.528,234.748 214.409,233.814 215.835 M283.952 215.913 C 283.821 216.707,283.879 217.081,284.101 216.859 C 284.303 216.657,284.401 216.067,284.319 215.546 C 284.193 214.745,284.137 214.802,283.952 215.913 M188.179 228.600 C 188.179 235.860,188.233 238.886,188.299 235.325 C 188.365 231.764,188.366 225.824,188.299 222.125 C 188.233 218.426,188.179 221.340,188.179 228.600 M228.881 218.591 C 229.359 219.576,229.819 220.314,229.903 220.230 C 230.084 220.049,228.468 216.800,228.197 216.800 C 228.094 216.800,228.402 217.606,228.881 218.591 M231.910 219.410 C 231.353 220.558,230.834 221.145,230.495 221.015 C 230.200 220.902,230.068 220.987,230.203 221.205 C 230.685 221.984,231.202 221.569,232.200 219.600 C 232.757 218.500,233.118 217.600,233.002 217.600 C 232.885 217.600,232.394 218.415,231.910 219.410 M255.618 218.920 C 255.589 220.107,256.624 221.696,258.668 223.600 L 260.600 225.400 258.673 223.359 C 257.613 222.236,256.496 220.616,256.191 219.759 C 255.885 218.902,255.627 218.524,255.618 218.920 M278.307 218.690 C 279.026 218.779,280.106 218.777,280.707 218.686 C 281.308 218.595,280.720 218.522,279.400 218.524 C 278.080 218.526,277.588 218.601,278.307 218.690 M181.694 232.051 C 181.586 246.604,181.933 245.504,177.381 245.701 L 174.200 245.839 177.438 245.920 C 182.333 246.041,182.033 246.979,181.900 231.962 L 181.788 219.400 181.694 232.051 M269.826 220.165 C 271.844 221.044,273.126 221.259,271.400 220.429 C 270.520 220.006,269.530 219.653,269.200 219.645 C 268.870 219.638,269.152 219.872,269.826 220.165 M197.342 223.800 C 197.341 225.780,197.408 226.640,197.492 225.712 C 197.576 224.784,197.577 223.164,197.495 222.112 C 197.412 221.060,197.343 221.820,197.342 223.800 M172.577 232.800 C 172.577 239.290,172.632 241.945,172.699 238.700 C 172.766 235.455,172.766 230.145,172.699 226.900 C 172.632 223.655,172.577 226.310,172.577 232.800 M141.351 226.000 C 141.351 228.530,141.416 229.565,141.496 228.300 C 141.575 227.035,141.575 224.965,141.496 223.700 C 141.416 222.435,141.351 223.470,141.351 226.000 M212.577 233.000 C 212.577 239.380,212.632 241.934,212.699 238.676 C 212.767 235.417,212.766 230.197,212.699 227.076 C 212.631 223.954,212.576 226.620,212.577 233.000 M249.376 233.400 C 249.376 239.560,249.432 242.024,249.499 238.876 C 249.567 235.727,249.567 230.687,249.499 227.676 C 249.431 224.664,249.376 227.240,249.376 233.400 M166.514 225.400 C 166.517 226.500,166.595 226.903,166.687 226.295 C 166.779 225.686,166.777 224.786,166.682 224.295 C 166.587 223.803,166.511 224.300,166.514 225.400 M221.692 232.700 L 221.784 241.800 221.900 233.058 C 222.007 225.007,222.068 224.358,222.672 224.858 C 223.270 225.352,223.279 225.320,222.768 224.500 C 221.709 222.799,221.600 223.624,221.692 232.700 M239.311 224.500 C 238.508 225.539,238.367 226.156,239.151 225.200 L 239.971 224.200 240.095 232.200 L 240.218 240.200 240.309 232.100 C 240.395 224.465,240.241 223.297,239.311 224.500 M263.600 227.000 C 264.150 227.314,264.780 227.572,265.000 227.572 C 265.220 227.572,264.950 227.314,264.400 227.000 C 263.850 226.686,263.220 226.428,263.000 226.428 C 262.780 226.428,263.050 226.686,263.600 227.000 M236.478 229.331 C 235.775 230.490,235.200 231.600,235.200 231.796 C 235.200 231.992,235.833 231.102,236.607 229.817 C 237.381 228.532,237.956 227.422,237.885 227.351 C 237.814 227.280,237.181 228.171,236.478 229.331 M158.205 227.987 C 151.319 228.180,150.604 228.266,150.546 228.908 C 150.501 229.403,150.538 229.433,150.670 229.008 C 150.830 228.494,151.978 228.399,158.129 228.394 C 162.132 228.391,165.670 228.213,166.000 228.000 C 166.330 227.787,166.420 227.648,166.200 227.693 C 165.980 227.737,162.382 227.869,158.205 227.987 M224.415 227.800 C 224.417 228.020,224.786 228.650,225.236 229.200 C 225.779 229.864,225.915 229.931,225.640 229.400 C 224.966 228.095,224.412 227.372,224.415 227.800 M269.558 229.237 C 270.525 229.666,271.388 229.945,271.475 229.858 C 271.648 229.686,268.565 228.382,268.092 228.428 C 267.931 228.444,268.591 228.808,269.558 229.237 M197.377 233.099 L 197.400 237.000 202.600 237.200 L 207.800 237.400 208.043 239.000 L 208.286 240.600 208.343 239.180 C 208.431 236.974,208.007 236.800,202.534 236.800 L 197.629 236.800 197.492 232.999 L 197.354 229.198 197.377 233.099 M283.293 230.800 C 283.293 231.570,283.375 231.885,283.476 231.500 C 283.576 231.115,283.576 230.485,283.476 230.100 C 283.375 229.715,283.293 230.030,283.293 230.800 M255.429 230.629 C 255.010 231.047,254.824 231.882,254.872 233.129 L 254.944 235.000 255.093 233.132 C 255.288 230.675,255.633 230.459,259.620 230.299 L 263.000 230.163 259.529 230.081 C 256.826 230.018,255.918 230.139,255.429 230.629 M272.900 230.811 C 273.505 231.282,274.021 232.057,274.046 232.533 C 274.084 233.238,274.128 233.266,274.279 232.681 C 274.493 231.857,273.842 230.937,272.633 230.356 C 272.112 230.106,272.212 230.276,272.900 230.811 M150.490 237.169 C 150.414 243.069,150.295 244.264,149.715 244.969 L 149.030 245.800 149.925 244.979 C 150.795 244.180,150.816 243.969,150.700 237.179 L 150.580 230.200 150.490 237.169 M226.524 231.400 C 226.862 232.060,227.438 232.960,227.804 233.400 C 228.170 233.840,228.065 233.480,227.570 232.600 C 226.480 230.658,225.664 229.722,226.524 231.400 M283.693 233.600 C 283.693 234.370,283.775 234.685,283.876 234.300 C 283.976 233.915,283.976 233.285,283.876 232.900 C 283.775 232.515,283.693 232.830,283.693 233.600 M264.800 234.525 C 264.800 235.113,266.098 236.800,266.546 236.794 C 266.857 236.790,266.867 236.695,266.577 236.494 C 266.344 236.332,265.849 235.755,265.477 235.211 C 265.105 234.667,264.800 234.358,264.800 234.525 M267.646 237.237 C 267.951 237.430,269.010 237.576,270.000 237.562 C 272.133 237.532,271.755 237.340,269.046 237.076 C 267.842 236.959,267.305 237.021,267.646 237.237 M282.467 238.380 C 282.233 239.051,282.127 239.600,282.231 239.600 C 282.501 239.600,283.256 237.522,283.057 237.324 C 282.967 237.233,282.701 237.708,282.467 238.380 M279.775 242.900 L 278.600 244.200 279.900 243.025 C 280.615 242.379,281.200 241.794,281.200 241.725 C 281.200 241.416,280.870 241.688,279.775 242.900 M141.293 243.200 C 141.293 243.970,141.375 244.285,141.476 243.900 C 141.576 243.515,141.576 242.885,141.476 242.500 C 141.375 242.115,141.293 242.430,141.293 243.200 M188.060 243.420 C 188.001 244.623,188.582 245.600,189.356 245.600 C 189.575 245.600,189.460 245.375,189.101 245.100 C 188.743 244.825,188.376 244.060,188.285 243.400 L 188.120 242.200 188.060 243.420 M144.500 245.891 C 145.325 245.978,146.675 245.978,147.500 245.891 C 148.325 245.805,147.650 245.734,146.000 245.734 C 144.350 245.734,143.675 245.805,144.500 245.891 M194.100 245.898 C 196.465 245.969,200.335 245.969,202.700 245.898 C 205.065 245.828,203.130 245.770,198.400 245.770 C 193.670 245.770,191.735 245.828,194.100 245.898 M215.911 245.893 C 216.851 245.978,218.291 245.977,219.111 245.891 C 219.930 245.805,219.160 245.736,217.400 245.737 C 215.640 245.739,214.970 245.809,215.911 245.893 M243.100 245.893 C 244.035 245.977,245.565 245.977,246.500 245.893 C 247.435 245.809,246.670 245.740,244.800 245.740 C 242.930 245.740,242.165 245.809,243.100 245.893 " stroke="none" fill="#3c3c3c" fill-rule="evenodd"></path></g></svg>