<svg xmlns="http://www.w3.org/2000/svg" xmlns:xlink="http://www.w3.org/1999/xlink" id="svg" viewBox="94.82 137.31 211.73 125.79"><g id="svgg"><path id="path0" d="M181.710 138.368 C 147.937 145.371,123.733 172.820,120.913 207.315 L 120.664 210.370 107.739 210.370 C 99.569 210.370,94.815 210.504,94.815 210.732 C 94.815 210.931,97.314 214.723,100.368 219.158 C 103.422 223.593,105.963 227.327,106.016 227.454 C 106.068 227.582,103.569 231.377,100.463 235.888 C 97.356 240.400,94.815 244.254,94.815 244.453 C 94.815 244.683,100.779 244.815,111.204 244.816 L 127.593 244.818 129.024 247.607 C 129.812 249.140,131.421 251.931,132.601 253.809 L 134.746 257.222 127.281 257.427 C 123.174 257.539,119.785 257.664,119.749 257.705 C 119.712 257.745,119.421 258.040,119.101 258.360 C 118.273 259.187,118.361 261.324,119.259 262.222 C 120.441 263.404,272.735 263.390,274.004 262.208 C 275.106 261.182,275.062 259.473,273.906 258.316 C 273.003 257.413,272.950 257.407,265.758 257.407 C 261.776 257.407,258.519 257.315,258.519 257.202 C 258.519 257.089,259.185 256.014,260.000 254.814 C 260.815 253.614,262.413 250.873,263.551 248.723 L 265.620 244.815 286.183 244.815 C 304.099 244.815,306.719 244.745,306.538 244.272 C 306.423 243.973,303.880 240.181,300.887 235.846 C 297.894 231.510,295.442 227.796,295.439 227.593 C 295.436 227.389,297.881 223.684,300.873 219.360 C 303.865 215.035,306.411 211.244,306.530 210.934 C 306.721 210.435,304.809 210.370,289.738 210.370 L 272.729 210.370 272.278 206.019 C 268.760 172.066,244.590 145.189,211.439 138.369 C 204.601 136.962,188.494 136.962,181.710 138.368 M202.646 142.601 C 237.847 146.080,263.518 172.093,267.241 208.056 L 267.480 210.370 259.350 210.370 L 251.220 210.370 250.983 207.315 C 249.411 187.120,234.228 168.010,214.259 161.093 C 181.386 149.705,144.980 173.181,142.336 207.472 L 142.112 210.370 134.046 210.370 L 125.979 210.370 126.161 208.241 C 129.566 168.298,163.963 138.779,202.646 142.601 M204.087 164.235 C 220.853 166.984,234.953 177.743,241.599 192.859 C 243.974 198.261,245.919 205.680,245.925 209.355 L 245.926 210.377 227.160 210.281 L 208.395 210.185 207.845 208.535 C 204.436 198.308,188.304 198.625,185.202 208.980 L 184.785 210.370 166.096 210.370 L 147.407 210.370 147.409 209.352 C 147.415 205.202,149.942 196.027,152.477 190.952 C 161.981 171.923,183.388 160.841,204.087 164.235 M199.598 207.021 C 200.379 207.419,201.481 208.294,202.046 208.965 L 203.074 210.185 199.870 210.292 C 198.108 210.351,195.248 210.351,193.513 210.292 L 190.360 210.185 191.199 208.984 C 192.943 206.485,196.786 205.587,199.598 207.021 M192.990 217.618 C 193.514 217.883,194.159 218.360,194.424 218.679 C 194.689 218.998,195.260 219.272,195.693 219.288 C 196.127 219.305,196.278 219.400,196.029 219.501 C 195.727 219.624,195.635 220.257,195.752 221.416 C 195.895 222.840,195.865 222.963,195.581 222.106 C 194.895 220.032,194.544 219.899,192.571 220.973 C 187.276 223.855,187.695 225.547,193.706 225.553 C 199.152 225.559,203.122 221.235,199.142 219.632 C 198.410 219.337,198.441 219.304,199.467 219.283 C 202.056 219.229,203.085 221.998,201.161 223.841 C 198.986 225.924,192.957 226.624,189.266 225.222 L 187.412 224.517 185.890 226.425 C 178.347 235.880,184.684 241.419,193.859 233.391 C 196.259 231.291,199.972 229.259,201.411 229.259 C 202.266 229.259,202.226 229.337,200.858 230.328 C 198.333 232.157,196.046 235.429,196.779 236.162 C 197.494 236.876,200.523 234.572,201.293 232.728 C 201.582 232.037,202.076 231.372,202.391 231.251 C 202.705 231.131,202.963 230.726,202.963 230.353 C 202.963 229.249,203.666 229.142,204.137 230.175 C 204.522 231.021,204.438 231.323,203.405 232.788 C 201.609 235.335,202.399 234.950,207.410 230.833 C 211.017 227.870,212.741 229.232,210.098 232.959 C 209.638 233.609,210.101 233.375,211.667 232.166 C 216.673 228.302,220.406 228.271,217.525 232.118 L 216.481 233.512 218.333 232.117 C 223.982 227.863,227.003 228.406,223.513 233.049 C 221.023 236.361,222.708 236.289,226.296 232.930 C 230.681 228.825,234.647 227.685,231.481 231.439 C 229.417 233.887,229.619 233.962,232.471 231.804 C 237.225 228.205,240.360 228.291,237.942 231.954 L 236.910 233.519 238.177 232.496 C 243.779 227.975,247.534 228.285,243.858 232.964 C 241.216 236.327,242.509 236.517,246.179 233.305 C 250.789 229.271,256.513 227.800,255.068 231.021 C 254.736 231.762,253.086 232.719,249.907 234.014 C 248.384 234.634,248.509 235.927,250.093 235.924 C 252.325 235.921,258.889 230.801,258.889 229.063 C 258.889 228.066,260.095 227.223,261.017 227.576 C 261.465 227.748,261.503 227.905,261.173 228.234 C 260.471 228.936,260.664 229.211,262.037 229.469 C 263.617 229.765,263.738 230.602,262.384 231.874 C 258.260 235.748,259.879 236.455,264.444 232.773 C 268.900 229.180,272.625 228.134,272.889 230.402 C 273.016 231.495,272.141 232.413,271.285 232.084 C 270.838 231.912,270.796 231.701,271.095 231.141 C 272.721 228.103,269.047 230.371,267.179 233.558 C 265.090 237.123,268.276 236.804,273.148 232.961 C 277.524 229.509,281.498 228.258,281.780 230.243 C 281.925 231.260,280.154 232.636,277.500 233.566 C 275.927 234.118,275.556 234.408,275.556 235.087 C 275.556 236.669,277.957 236.136,280.882 233.903 C 283.010 232.279,283.603 232.382,281.605 234.029 C 277.505 237.408,272.389 237.644,273.234 234.415 C 273.464 233.534,273.457 233.531,272.567 234.181 C 268.340 237.261,263.504 237.506,264.233 234.603 C 264.366 234.074,264.327 233.733,264.147 233.844 C 263.967 233.955,262.931 234.644,261.845 235.375 C 257.509 238.293,255.843 236.188,259.598 232.536 C 263.507 228.734,261.073 228.625,256.918 232.415 C 251.849 237.040,246.667 238.217,246.667 234.743 L 246.667 233.709 244.992 234.987 C 240.693 238.269,238.599 236.752,241.711 232.612 C 244.521 228.874,242.493 229.558,236.907 234.233 C 232.039 238.306,231.250 236.912,235.603 231.932 C 238.579 228.527,235.487 229.881,230.000 234.385 C 226.120 237.571,224.963 237.431,227.237 234.052 C 227.957 232.982,228.645 231.946,228.766 231.750 C 228.887 231.555,227.770 232.416,226.284 233.664 C 220.799 238.269,217.520 237.493,221.502 232.531 C 224.553 228.729,222.654 229.374,216.732 234.150 C 213.730 236.571,212.856 237.022,212.446 236.359 C 212.221 235.995,214.379 232.713,215.508 231.702 C 216.287 231.005,216.576 230.000,215.998 230.000 C 215.436 230.000,212.404 232.107,209.689 234.386 C 205.544 237.863,204.574 237.440,207.415 233.395 C 208.429 231.950,209.259 230.679,209.259 230.569 C 209.259 230.005,208.304 230.538,206.743 231.973 C 204.422 234.108,203.332 234.815,202.363 234.815 C 201.920 234.815,200.832 235.229,199.945 235.736 C 196.942 237.453,194.134 236.701,194.657 234.319 L 194.909 233.174 193.499 234.412 C 183.591 243.111,174.564 234.843,183.937 225.653 C 186.190 223.444,186.348 223.186,185.968 222.352 C 184.165 218.394,188.604 215.401,192.990 217.618 M187.276 218.316 C 186.545 218.994,186.298 219.581,186.302 220.630 C 186.312 223.010,186.620 223.125,189.286 221.739 C 190.595 221.059,192.230 220.307,192.918 220.068 C 194.375 219.564,194.133 218.982,192.057 217.997 C 190.215 217.123,188.435 217.242,187.276 218.316 M141.636 218.373 C 143.217 218.979,141.224 221.492,137.748 223.275 C 135.917 224.215,135.592 224.585,134.041 227.492 C 129.668 235.687,122.041 239.349,114.604 236.824 C 112.658 236.163,111.919 236.569,110.305 239.180 C 109.887 239.856,109.467 240.332,109.372 240.236 C 109.129 239.993,109.928 238.573,111.204 236.981 C 112.218 235.715,112.251 235.573,111.723 234.759 C 110.405 232.725,110.778 230.233,112.685 228.340 C 115.828 225.218,121.308 224.249,125.106 226.141 L 127.025 227.097 130.009 225.877 C 132.585 224.824,133.193 224.392,134.454 222.722 C 136.962 219.400,139.814 217.674,141.636 218.373 M144.800 221.944 C 141.777 225.347,136.575 231.882,135.735 233.333 C 135.370 233.963,135.437 233.920,138.148 231.779 C 143.649 227.435,146.399 228.681,142.365 233.691 C 140.171 236.415,142.325 235.941,145.556 232.988 C 147.930 230.818,150.357 229.259,151.360 229.259 C 152.226 229.259,152.519 229.773,151.880 230.168 C 151.361 230.488,148.148 234.840,148.148 235.222 C 148.148 235.955,149.289 235.476,151.102 233.981 C 152.152 233.116,153.875 231.699,154.931 230.833 C 157.756 228.518,159.881 228.755,158.622 231.244 C 158.007 232.461,158.137 232.413,160.677 230.479 C 161.590 229.784,162.704 229.265,163.269 229.273 L 164.259 229.286 163.204 230.149 C 162.055 231.089,161.981 232.315,163.061 232.523 C 163.416 232.592,164.407 232.048,165.263 231.316 C 167.703 229.227,171.121 228.566,171.419 230.126 C 171.693 231.564,169.848 232.761,166.204 233.509 C 165.367 233.680,165.185 233.915,165.185 234.822 C 165.185 236.652,169.513 235.520,171.452 233.183 C 171.722 232.858,172.118 232.593,172.332 232.593 C 173.116 232.593,170.988 234.407,168.897 235.521 C 165.418 237.376,162.184 236.865,162.764 234.552 C 162.938 233.858,162.725 233.409,161.826 232.568 C 160.301 231.144,160.468 231.089,157.248 234.074 C 152.353 238.613,151.821 237.334,156.208 231.574 C 157.803 229.480,156.269 230.166,153.112 232.958 C 149.941 235.762,148.212 236.780,146.931 236.598 C 145.838 236.443,145.653 235.000,146.565 233.746 C 147.997 231.778,147.832 231.791,145.340 233.846 C 139.969 238.277,136.865 237.385,140.761 232.531 C 143.812 228.729,141.913 229.374,135.991 234.150 C 132.989 236.571,132.115 237.022,131.705 236.359 C 130.886 235.033,145.348 218.148,147.303 218.148 C 148.053 218.148,147.709 218.670,144.800 221.944 M138.983 219.780 C 137.564 221.068,136.014 223.334,136.553 223.332 C 137.748 223.326,141.481 220.189,141.481 219.190 C 141.481 218.160,140.517 218.388,138.983 219.780 M155.926 224.238 C 155.926 224.754,154.582 225.926,153.992 225.926 C 153.640 225.926,153.606 224.295,153.951 223.951 C 154.423 223.478,155.926 223.697,155.926 224.238 M117.187 226.224 C 113.446 227.773,111.780 230.777,112.952 233.859 L 113.311 234.804 115.163 233.428 C 116.358 232.539,116.887 231.924,116.655 231.692 C 116.458 231.495,116.296 231.080,116.296 230.769 C 116.296 230.360,116.445 230.418,116.838 230.979 C 117.424 231.816,125.370 228.389,125.370 227.300 C 125.370 225.758,120.012 225.054,117.187 226.224 M129.459 226.626 C 127.368 227.587,127.249 227.713,127.204 229.003 C 127.097 232.091,121.577 234.600,118.505 232.956 C 117.511 232.424,113.830 235.000,114.474 235.777 C 117.207 239.069,125.321 236.626,128.977 231.410 C 133.101 225.526,133.162 224.926,129.459 226.626 M122.123 230.087 C 118.193 232.147,117.954 232.410,119.659 232.784 C 122.099 233.320,125.182 231.975,125.840 230.088 C 126.532 228.102,125.909 228.102,122.123 230.087 M167.793 230.956 C 166.036 232.544,165.879 233.147,167.315 232.790 C 168.477 232.502,170.000 231.210,170.000 230.513 C 170.000 229.506,169.226 229.662,167.793 230.956 M251.269 231.344 C 250.352 232.287,249.679 233.136,249.773 233.230 C 250.411 233.868,253.704 231.445,253.704 230.337 C 253.704 229.229,253.070 229.491,251.269 231.344 M277.904 231.298 C 276.097 233.184,276.184 233.793,278.120 232.793 C 279.605 232.025,280.638 230.489,280.059 229.911 C 279.744 229.596,279.200 229.945,277.904 231.298 M153.103 246.231 C 154.151 247.743,160.692 254.255,163.140 256.223 L 164.613 257.407 153.119 257.407 L 141.624 257.407 140.365 255.648 C 137.110 251.101,133.704 245.666,133.704 245.018 C 133.704 244.906,137.848 244.815,142.913 244.815 L 152.121 244.815 153.103 246.231 M232.974 246.283 C 230.697 249.158,225.970 252.854,220.818 255.791 L 217.981 257.407 196.495 257.407 L 175.010 257.407 171.162 255.093 C 167.308 252.773,163.476 249.727,160.386 246.526 L 158.735 244.815 196.435 244.815 L 234.136 244.815 232.974 246.283 M259.027 246.019 C 257.926 248.150,254.751 253.087,253.071 255.278 L 251.438 257.407 239.923 257.407 L 228.407 257.407 229.971 256.275 C 232.308 254.582,237.219 249.786,239.321 247.144 L 241.175 244.815 250.412 244.815 L 259.649 244.815 259.027 246.019 " stroke="none" fill="#000000" fill-rule="evenodd"/></g></svg>